<mxfile host="65bd71144e">
    <diagram id="d_FEcNnIymXfxIMcN34X" name="Page-1">
        <mxGraphModel dx="1028" dy="571" grid="1" gridSize="10" guides="1" tooltips="1" connect="1" arrows="1" fold="1" page="1" pageScale="1" pageWidth="850" pageHeight="1100" math="0" shadow="0">
            <root>
                <mxCell id="0"/>
                <mxCell id="1" parent="0"/>
                <mxCell id="28" value="" style="shape=image;imageAspect=0;aspect=fixed;verticalLabelPosition=bottom;verticalAlign=top;image=data:image/png,iVBORw0KGgoAAAANSUhEUgAABM8AAAHSCAIAAAB0BXt7AAAAAXNSR0IArs4c6QAAAARnQU1BAACxjwv8YQUAAAAJcEhZcwAAEnQAABJ0Ad5mH3gAAKDLSURBVHhe7f1ZUBTfvu+L/s/jfboPPu4b956H9eKN2K9GGHfH3us0sdY+K+aZc63ZL+f8C2IDggIKKKg0So+IdILSKEgj0iONDYr0goqiKAgKSicgjYqKis28v8wcmTmyOgqoorrvJ75B5Bg1clSSlZU5PpVZWb/8AwAAAAAAAAAAsDSwTQAAAAAAAAAAlge2CQAAAAAAAADA8sA2AQAAAAAAAABYHtgmAAAAAAAAAADLA9sEAAAAAAAAAGB5YJsAAAAAAAAAACwPbBMAAAAAAAAAgOWBbQIAAAAAAAAAsDywTQAAAAAAAAAAlge2CQAAAAAAAADA8sA2AQAAAAAAAABYHtgmAAAAAAAAAADLA9sEAAAAAAAAAGB5YJsAAAAAAAAAACwPbBMAAAAAAAAAgOWBbQIAAAAAAAAAsDywTQAAAAAAAAAAlge2CQAAAAAAAADA8sA2AQAAAAAAAABYHtgmAAAAAAAAAADLA9sEAAAAAAAAAGB5YJsAAAAAAAAAACwPbBMAAAAAAAAAgOWBbQIAAAAAAAAAsDywTQAAAAAAAAAAlge2CQAAAAAAAADA8sA2AQAAAAAAAABYHtgmAAAAAAAAAADLA9sEAAAAAAAAAGB5YJsAAAAAAAAAACwPbBMAAAAAAAAAgOWBbQIAAAAAAAA2lIWZr4ixsHXkFMA2AQAAAAAAABvH0zvvS06NN+RNI/opjB0dffaJrSnHB7YJAAAAAAAA2DjINrsb38/N/QPRT3PlHGwTAAAAAAAAANYCbNNEYJsAAAAAAAAAsEZgmyYC2wQAAAAAAACANQLbNBHYJgAAAAAAAACsEdimicA2AQAAAAAAAGCNwDZNBLYJAAAAAAAAAGsEtmkisE0AAAAAAAAAWCOwTROBbQIAAAAAAADAGoFtmghsEwAAAAAAAADWCGzTRGCbAAAAAAAAALBGzLLNnsQtm37ZJMWjXqysd1dqhGxO6BFa9sZt5iqVxtr2WxN7pcqybUrLLXEjQo34RFviEqXGVFnhIc8lP4U41+YtW+V6pbe5f3CNt1WINfzyuJdJzdQl+af9jdKMxgLbBAAAAAAAAIA1srpzm6IfitomOptseqLmCTYo2R3zOslRBeEUG/OaqlqoEHEuUSaZ1oquWJbI9FLISALppfR0kqNKPTA7FUxVWQapQ6pUu+WeQmwm9t+TmFqt9G84sE0AAAAAAAAAWCPm2aYoe4IHChHtTmObivVpbJMZ4LZznPUpleK5R/U0I5tLFVTWmD//KVuoYrxyD7QY+jPqaK28hOKz6+quscA2AQAAAAAAAGCNmGGb70XVZOcD5XOJq7VNSReVkHxyPSgCqfYv9iDWS0XVUY3bpjqj8pBOBMlUzfn/TB7l2hsIbBMAAAAAAAAA1ogZtvlSPUlozDZlLdTapuR1uuc2WXg/NGKb/KWwa7RNo+cwhUf/6Z889eo1gW0CAAAAAAAAwBox1zZFsZRkUlQ4jW0qKqixTcUAxQlZ/EhBRYHkKqWrW5WWWtuUehOfTjJPg7Ypm62go+KM1InYrWy5NJe0AGXbpHnpUdgmAAAAAAAAAFgLs763KQqekK3b3JnUSfqnhEkd01ElyqlFyS3F6Mik2Gwbk0atbfJXvbp7sNOnRmxT01irwVJUEZVrfvHBXYIAAAAAAAAAwEqYd5cg/WjObSrhzkY6Q2CbAAAAAAAAALBGYJsmAtsEAAAAAAAAgDUC2zQR2CYAAAAAAAAArJG12qZLBLYJAAAAAAAAAGsEtmkisE0AAAAAAAAAWCNkmy3VCy+HlhH93CiagW0CAAAAAAAAwFog2yw+OVabM4XopyBmFLYJAAAAAAAAAGsBV9KaCK6kBQAAAAAAAIA1Ats0EdgmAAAAAAAAAKwR2KaJwDYBAAAAAAAAYI3ANk0EtgkAAAAAAAAAawS2aSKwTQAAAAAAAABYI7BNE4FtAgAAAAAAAMAagW2aCGwTAAAAAAAAANYIbNNEYJsAAAAAAAAAsEZgmyYC2wQAAAAAAACANQLbNBHYJgAAAAAAAACsEZezzbJtmzZtq9CpnBtJ2PpL9E2dStgmAAAAAAAAAKwV2KYY2CYAAAAAAAAAWBRcSSsGtgkAAAAAAAAAFsWIbda7b/plEws7E1jhodRQNif0GK2k9MZtlivZ7FzNL1viRsRm9Cw0i/hcWxN7DT2pcCpya2KC/CzuZUb7n+tJ3MJq1Ga6YW24zuVZKLBNAAAAAAAAALAYK53bFE76bfKop2lBLMUJIfL1qAYrBRUU7FGoFBrI01wzyUsF29yyVXY/NeqTSkLI7JHvn3tS4VFBI2XXVfs3FLkT2XWlepzbBAAAAAAAAACLsuKVtIraacRSPA9Jmmeokj3EKnkPVJsptmn4PKTqk6ocKl0ZmEu7GII6yqdP9aJ0SBOqBsM2AQAAAAAAAMCiGLVNwcrkq0xFK9M3Oj3blCoFG1TnFSK5pfCoUinqoqKdcvSe1IhtaueSlk2ZUcyKtsmfgIVtAgAAAAA4KvPzdpR379hSAQAIw7bJnfcTRM6AbbITjIYqDdigYqfCtPjlSQO2aehJjdim3JUcam9UL3UC2wQAAAAAcCbI8XTGcDYMbBMAHoO2qZpYT6L7VjatEUvZDA1WakSup75C8ElVESs8Nm9h5qmxTYNPasg2dZ9U6Ep+SKwcqSgzbp5Kh9pZYJsAAAAAAA6JDWyTH6GqEYa2jS/ZUgHgxNy//yA7O3tycpKVjWPkSlr5qldB+dhpScHx1EtV2fvLYKVOPTsPKbwr5SLzUu25TUNPqnkvc37I9S8/KvcvRD3dqhe+Q34W3JMWAAAAAMARgW0CsMGEhoadOBG/b5/f8eOR165dm6c3oRFWvEuQEs0ZRZOVThPYJgAAAACAvWM3V9LCNoGrcOrU6ebmB7TZt7U9TkvL2bXLMz7+ZEtLy9LSEmsh47S2KZwIVc9bsqxyUWGbAAAAAAD2jmCb2pGfe5n4HS25KN/eYyRh6+aEMtZSvPqO/FBso4wRuX7Y5Xn6YW3YuU3+iTbBNoFroNimlNnZn42N3YmJ6b/+uj01Nb27u5u1w7lNk4FtAgAAAADYO/Pz7coNQkT3017jKlz1Kn0XS/zWlnRrEMEzt7l7iC2VL2spE5q5DEW5klaYRXk6nNsEroKObSoZH1+qrW2Ojj65e7dndnbO48ePzbdNFwxsEwAAAFgXy8vLS0tL79+/n5+fn5mZef369djY2MuXL58/f/7s2bMnT548evTowYMH9+7du3PnTnt7e0tLS1NTU2Nj47Vr1+rr62tra6urqysqKkpLS0tKSoqKigoKCvLy8s6fP5+dnX3u3LnMzMz09PTU1NTk5OSkpKTExMSEhIS4uLiYmJioqKgTJ04cP348PDw8NDT06NGjR44cCQ4OPnz4cFBQUGBgYEBAwIEDB/z9/f38/Hx9fffv379v3z4fHx9vb++9e/d6eXl5iuzZs2e3yK5du3bKeMjs0EL9sKkNgRaYTW0IYWFhbGpDoJeGTa3E6wcXVEvkjZFFkECxRrBN7jyncvZSOMNJ09qzKHxjvci2KcitOovwRPm3X7DFsgW0YbMpu+fYsWNsyqLQe5xNrRsLbvDr+Wc3+H2nQDtGNmWIP/7xzwZtU8mjR6+iohL/7d9+c2TfOdimscA2AQAAuDrfv39fXFycnp4eGRkhObx79y4JIakgSSDpH4nf2bNnyfTi4+NJ7WhEdejQIRqjkLCRm7m5uZGYkbCRFJE50DiYTI+sj/SPGkdHR9Nc5IenT59OS0vLyMgge8zJyblw4cLFixdJLKn/srKyyspKei7SzoaGBnpeEtFbt241Nze3traSnZKjdnd3k6z29PQ8fPiQ3LWvr+/p06cDAwODg4PktMPDwyS3r169IssdHx+fnJwk46V/h9R3dnZ2bm6ONHhhYeHt27fv3r2j/5T48OHDx48fP336RJ78WeTLly9fRUieiW8ytHJsCy0Mm9oQ7Pbp5uaEc5uSGXLnNsUzmfI1rqJYmmGb6jWxQla0Ta2gCrZ546XwrrEVG/warQcrLaoFu7WTrmz1mpp+3lOnkgza5vT08tWrHXFxp93dPTIyMmnn3NfxFrZpLLBNAAAAzgzZ1NTUFFkZDQhI4UjqCgoKMjMzExISSAgDAgK8vLzc3d19fHyCgoKohuSQtJCEkFSwoqKC9K+pqamjo4NMj0SU1I6MjkSO5I1sjdyMPQ0AVkb43qagf5IiqqcxmUyKX7M00zaN6qVOjNsmrqQFroD+lbS3b/ckJ591d9+ZlJRMx4Vv375JLXElrYnANgEAADg2dLyfmZkZGBjo7Oysr68vLCxMT0+PiooKDAzcvXu3p6cnaSQVU1NTL1y4QAJ548YNatnX1/fy5cs3b97o310QADtkfn5SuP2P7tWzTCa5n3pfwTa1V+Ga9wPuyoQQ2CZwFRTbvHOn/+zZfC8vn+jo2Js3by4uLrIWMrBNE4FtAgAAcAzIKl+/fv3o0SM62JeUlJw5c+b48ePSdwgDAgKio6MzMjKo/tq1a93d3YODg6SgX758YTMD4OCItqle/sp5oFAUNJKm5d9zN2Wb3FxCTNwJk5NM3JMWuCDh4RHR0af8/QOPHQurq6ujYwp7QI/V2KbweY32YyNrRXtVghxxRzGgU2nNwDYBAADYHT9+/JicnOzp6WloaLhw4UJcXNzBgwfd3d0PHTp08uRJqqEDf1dX1/PnzxcWFtg8ADg12t/b5JXSBnn3ji0VAE7MnTvdZ86cefXqFSsbB7ZpIrBNAAAANubr168jIyPt7e2lpaXJycmHDx/evn07iWVSUlJxcfGtW7eePHny5s0b1hoAl4Rss8JDGaRyJyrXHe15SxbTncM2AeCxT9s0HNjm+oBtAgCAAzA9PX3v3r3KysrU1FSySg8Pj9DQ0MzMzJqaGqqfmJj48eMHawoAEJmfb0/YqmqhDU9sUmCbAPAYtk3x3l3Ke1Y+zcjZJt9A/I1c4aMf9mO5QpR7enEfCXEXt3vUS/UGPxtis7AnFa6GkHsQngu2uWZgmwAAYI+MjY21tbUVFhbGxMR4eXkdPHgwOTm5vLy8u7t7cnKSNQIAGOfLF/sKAEDBuG0qpzGVq98NntsUrlbQe5RN8woqXByreulmd5OfOilX0kpqyupxbnN9wDYBAMAumJmZ6erqKi4uJr3cvXv34cOHMzMzGxoanj59+uHDB9YIAAAAcHzMsE1FGg3apnoaU5mQtFBsz529lPvkFdRYZNvk7xYG21wvsE0AALANP3/+HBoaIp9MTU318/Pz9/enidraWtLLT5+c5zADAAAA6GCObXL2qFVQ5QJX6fQja6Zop2Cbahshsm0qpyuNRLZNra/CNtcHbBMAADaO5eXlJ0+eVFRUxMXFeXh4hIeHFxQU3LlzB3f0AQAA4Dqs7dwmZ4zi9yrZtNSAaqRmGjtVAtu0FbBNAACwOs+ePauqqoqNjXVzc4uKiiorK3v06NHnz5/ZwwAAAIArYeb3NkXlU91PtkHBALdsVe2RTHKLB9WwC2VlTRWm53rqK3RN1WiU/tUnosA21wdsEwAArMLU1FRjY2NKSsqePXsiIiIuX778+PHj5eVl9jAAAADgqhi3TfUKWPZtTEkUmXAK5ik8Kqggdw5TnFFpTxF0Ue5HMtVV2SbuSWtBYJsAAGBJ+vr6iouLQ0JC/P39c3Jy7ty5s7i4yB4DAAAAgJnf21xFDF8966CBbQIAANDw+fNnssrMzEwvL6/IyMiampqXL1+yxwAAAACgxcK2Kd8oSLfeSPgzn3LsSFZhmwAAAAQ+ffrU2tqanJzs5uZ2+vTp27dvv337lj0GAAAAACNYzjbFS15Xo5r2H9gmAAC4NN++fevs7ExJSSHJTEtL6+jo+IIfbgcAAADMxrBtImJgmwAA4KI8fvw4Ozt7165dSUlJbW1tkEwAAABgDcA2TQS2CQAArsXU1FRlZWVgYODx48evX7/+7t079gAAAAAAVg9s00RgmwC4EPNTX68XTLdUzCIbnJvFM4/b3rOXwXa0t7efOnXK29u7qKgIN/4BAAAALAJs00RgmwC4EDNjX2rOvX7W+xnZ4PR2fCxPnWAvw4YzMjJSUlLi5+eXkJBw9+5dVgsAAAAASwDbNBHYJgAuBNnmjeI3OnsBZAMyNvKtLmeKvQwbSFtbW2Jioo+PT2lp6fz8PKsFAAAAgOWwD9sU7me7JW5Et178PZVJncoNDGwTABcCtmmrbLBtvnz58vLly/7+/gkJCffu3WO1AAAAALACsE0TgW0C4ELANm2VjbHN79+/37lz5/Tp03v37i0pKcHJTAAAAGADsOsraWGbFgW2CYApYJu2irVtc3JysqqqKigoKDo6moST1QIAAADA+hizzd64zZs2/SJnW8XcPyo8lOIv7mVis57ELVsTK1hLoY3gh3wDfq6tib1y5zqR2sjnNoXznGwWcS7YpqWAbQJgCtimrWI923z48GFmZuaOHTvy8/Onpmzw1VAAAADAxTFsm4I0ivYouZ9HPf+oKKLio2SbiiXSLB7b3MWWQgPRLQWNZPMa6IeLeiWtMK/SDOc2LQpsEwBTwDZtFYvb5tu3b69fvx4REXH06NGmpiZWCwAArsfzhx8Qy2bpw3e2coF5GLRNRRd1plkEyVRsc3NCj7aSIskq/6hSKU3rRrFNYUI5LwrbtCywTQBMAdu0VSxomy9evCgsLNy7d296evrQ0BCrBQAAl2R69PPlpPH2ureIpVJ/Yaajdo6tX2Aexs9tSqLIn5Osd1cucJUeXdk2lfZSVrRN4Slgm1YCtgmAKWCbtopFbPPu3bspKSne3t4VFRWfP39mtQAA4MKQbeK4Ztk86vx49/oCW7/APIx9b1Pv+5bkgbJYKi66sm0a00udwDY3AtgmAKaAbdoq67FN6aLZsLCw8PDwjo4OVgsAAAC2aYXANteAYdskUTRw9awkliMJHpvZtGnb1HxvkyrrjZunYps6s8A2LQlsEwBTwDZtlbXZ5tjYWGlp6f79+9PS0oaHh1ktAAAAGdimxQPbXANGbVO9/JXpn3hzICoKesnu5bOSbbILcVk/cksDUW1TOwvuSWtJYJsAmMKubFO9vESIuD8Vdqyshu0upV1wnFzvUS/vprkP7fivQPBfx2eVm3vH2TPaMKu1zf7+/tzcXDc3t6Kioo8fP7JaAAAAWmCbFg9scw0Yu5JWDa+ULhbYJgAuhP3YZm/8/1f+fE50xa3bKrhdsOiK4qPS54KSQ0ouyn00KH4nQZydmac8Lc7FLiaJS5yQu7VhzLfNwcHBAwcO7Nu3r76+nlUBAAAwAmzT4oFtrgEjtlnvrlxJq56otEC0n9dLsV+VhW0C4ELYj21WePwvym5X3GlK09xZSkkmOW/UTIvmSdOql/JdSY5qT3tec2yzt7c3MTExKCjo+vXrrAoAAIBJYJsWD2xzDRi2zRuX3D3+f//yL1L+lv9U+6jLBLYJgAthZ+c2uZOTwod/ygSTSbNtUxVUMaJkSidChWwbkp/UhjFtm3fu3Dlx4kRYWFhrayurAgAAYAawTYsHtrkq3r9/X1RUFHEwZ4UraV04sE0AXAh7+t4m//118cSmnkyu4dymTiQXvda7pFO/8TFmm7du3QoJCYmLi7t//z6rAgAAYDZWtE3+oGMo3Hc6nCqwTXMYHx+vrq4+cuTYb3/7u9///k+HvFJhm8YC2wTAhbAj21R8UqkRj+vSNzClLyQIx/iVbJOfSzRYyTxHEjzEc6Tio3Zom1++fKmrq/P3909JSXn69CmrBQAAsEpgmxYPbNMEdMjOz8/ft8/X3X1nUlLGzZt3r1y5vWeP58p3CXLhwDYBcCHszTbViBfQqpfFemxjV9WuaJtyvTSjPCzgvv+51b7uErSwsFBWVrZnz56srKyRkRHpdQEAALA2YJsWD2xTh+Xl5c7OztTUtF9/ddu//0BWVlF39zNpXQ0Pv9227e+PHz+GbZoIbBMAF8KerqStT1AO4frnOZ0uZJuVmaP5+flubm4FBQXT09PsJQEAALAOLGib3H0+db7fIX71Q765qCKZ6iekYkx4qRDug1GlMfeM7CshQo1HovxNE6pUPjxVvzPCP6986FQ/Y/1vx9qkZmsObFPh2rVrx46F/e53/37kSMSlS7X9/VM66yo6OpGO6dQStmkisE0AXAg7u0sQO3Y668fDfMg2L8Q+rqioeP/+PXsxAAAArBtL2aYofupRSbBB82yTHbz4K24MRLRB7he8tC3V/iX/FPuU7m4gLZJ6Fz1xdv7oKUyLczFDzr0q9bn2wDYVsrKy9u7dPz7+SWcVSamsvBEQECi1JNu8mj/zoHUR0U/NudewTQBcBXs6t/mPtpS//vorS3KL7qNOFrLN2uzX7GUAAABgISxjm30XhROP7BYAclZlm9o2uuEvyuWnNV8qEXRR9UbNtGSeNK1aK9+V5Ki6y7/WwDZ5wsIi8vLKdFYR5dmzmT/96S8DAwNSM7LNmnNT7fVvEf2Up07ANgFwFezKNl0qOncJAgAAYBEsaJva842rtU2NKOpF5+SkOBd3OlSZ1yzb1IkgmVIDIX/NnuCedy2Bberwn//5t9bWXp21FB4ec/nyZdYCV9KaDK6kBcCFgG3aKrBNYCe8fau7cdow8/NsqQBYM3Zjm5o2BsKdxpSeSJydXRO7Ots0eg5TePS//bcQvfrVBbapQ3l5+bZtv/LX016+XB8cfIQ9LALbNBHYJgAuBNlmUdzozZJZZINz9eJMWfI4exkAsB2wTeBkWOh7mxOyzglF8kBBCEXblNROTwL1bHOF720acFFudumMpfYbmIZtU6pkjio8qWSeZdukxaBHYZuW5c6dO4GBgcHBwdHRidL66eub+Pd///3w8DBrIQLbNBHYJgAuBNlmzbnX/Q+WkA3Ow7YP5SkT7GUAwHbYwDaFUTgbPXMRRs/RN9lSAbBmLHWXINnoxDAtlCRQ2nqlaTWKbSoxrpoUrnMxohyqle4eTFZXtE25Xgqr4ZfkCO4SZDmqq6v37Nkj/VxZcHBIcXENrZ+jR49XVlZKDRRgmyYC2wTAhcCVtLYKrqQFdgJsEzgZlrNN66Y3LlF+F4jqaOKaW1sHtklMTU2dPXs2OjqalUX+8Ic/njqVGRYWzsocsE0TgW0C4ELANm0V2CawE+zmSlrYJrAM9mab3IlHPv/8f9Ff9n1L8TQpbNOO6evrCwsLKy4uZmWZysrKX391Gx838L0Y2KaJwDYBcCFgm7YKbBPYCaJtaq4JVL+fJkUeBNOg2b2MtRQvEZSv+lNGydxc7Ktr+mFt5HOb3I1SKLBNsH4c5dzm3MO0/+1//X/+r1L+j7THOo/aU1zcNm/durVr167u7m5WNg/YponANgFwIWCbtgpsE6yNnz9//vjx4/v379++fVteXv769euXL18+f/68tLT06dOnjx8/fvjw4fXr14tmMz//hqSRfcFMcD/5diMsgl5Kj2q/M7bZ3WOb2FJoILiloJHcrUp0++GiXklL8yrNBHeNuvmTLZZJJicn6d+kf5b+a/rfaQ3QqqAVQmuG1g9bU8BVcRjbdJy4sm1eunQpMDBwYWHV/z7Z5uWk8WsXZxD9FMWPwTYBcBVgm7YKbNPakHWQiZGQvH37dnZ2lgRsbGxsZGRkcHDw6dOnjx496unp6e7u7ujoaG1tbWpqunHjxtWrV+vq6qqrqysqKkpLS2mQUVhYmJ+ff+HChZycnHPnzmVmZp45cyY1NTU5OTkpKSkxMTEhISEuLi4mJiYqKioyMvL48ePh4eFhYWHHjh07evTokSNHQkJCgoODT506FRQUREOWgICAgwcPHjhwwN/f38/Pz9fXd//+/fv27fPx8fH29t67d6+Xl5enp+eePXt27969a9eunTt3enh47Nixw93d3c3Nbfv27fSXpqmG6ulRakMtaRaakaAeqB96XurQTPr7bzNdFLZMWR25bZUkU7VN+YcWlErJEmmaf1SplIvaKLZJE+rVg8IsEfWf2GKZRFpj0upS1pW0omj9KKtIWj/UQFo/tGakeWm108qnV4FeC3pR6KU5dOgQvUz0YtGrRq9daGgovY4RERH0gtILRC8uvcT0QsfHx588eZJezdOnT9NmkJ6enpGRQRsGbR7nz5+nTYU2mJKSkrKyssrKyitXrtTX11+/fv3WrVstLS20pdH29uDBg8ePHw8MDLx48WJ0dJQ2S9o43717R9r8/ft3tu2C9QHbtHhc0zYnJiZoV5+SksLKq2du8itiLGwdOQWwTQBMAdu0VWCbxiBFfP/+/Zs3b0gOnz9//uTJE9LCzs7O27dvX7t2raamhobyNKanwT25H40DaPQfHR1NbkCKReZAFkESQo5BykGyQY5BtkBeQTpBIkHNyAlJG0gUaRhBtnD27Nns7GzyyYKCguLi4suXL5NqknDW1tY2NDSQKty8eZOemmyhvb39zp07JAz37t0jZ+jt7SVtoMXr7+9/9uzZ0NAQLe3w8PDLly9fvXpFCz8+Pk6DlcnJySmR6enpmZkZ+r/ILubm5ubn5xcWFsiEyTTo/11cXJRO1n369Ek5X0erQjplRx5ivbN2b9/OkeYpv5qgnJPU3F1TfHRl21Tai1nRNoWn0Nqmpa6klU7/Kud+lRO/tJ5pbdNqp5VPLwG9FvSK0EtDLxCJH71e9KqRBNIrSK8jvZrkhOSK9OLSS0wvNL3cfX199NLTBnD//v27d+/SJiF9YEEbCW0qtMHQZkMbT1VVFW2oZJ60rebl5ZGO0paWlpZGmpqQkEBbLHksaS1tlrRxkgCTEpMhkzDTFksyTAJMm+uJEyfIb2lDpU2dNnjaPkliyWBpkegdQctAi0TLSctP/xT9s+yfd3nINivSJx+2f0AslVulcx21c2z9ugb0Ng8ODqY3MisDYBzYJgCmgG3aKi5imzTEpwE9Dd8HBgZIGknYbty4QcZIo3ASvIyMjFOnTkVFRdGwOyAgwMfHRzqV5+3tffDgwZCQEBqRkxkqo+2ioqLy8nIaytOYvrm5mQbcNOKn0f/g4CCNuUkVyBxI3uhJMfI2H+F7m3rftxQ8kImlIIFm2qZRvdSJ9W3TQSFDJjGmbXhmZoa8l1z36dOnZJXSpy1Xr16trq6W3jv0jiBxjYmJCQ0NDQwMpPfOjh07du/e7efnR2+cyMhIemeR3xYUFJCg0vuF3no0eqYOyavJutnzOSlkmyWnxtuuLCCWSt35aZeyzcbGRjc3N3rrsTIAJoFtAmAK2Kat4tC2SS43Pz9PDvnkyZOurq6bN2/SIJhU8Ny5c0lJSSdOnDh8+PC+ffvIG/fs2ePv73/kyJHo6GgaHNPw9+LFi2SM9fX1NHqmeR89ejQ0NEQD67m5ORoE//jxgz0H2CjINkkU9a+eZWJZtm3LVmaepm1T873NuZGKMuPmqVxJq50FtrlOvn79+vbt28nJyefPn5NbdnR03Lhxo6qqqrCwkN56iYmJERERAQEBnp6e9N4kLz127FhCQgKJK715a2trW1paaK6RkRF6dzv0Zb24ktbicakraYuLi+kQ9u7dO1YGYCVgmwCYArZpq9izbX779m12dvbFixc9PT3khGSSpIjp6elkjMHBwd7e3u7u7vv37yeHjI2Npfq8vDwSyOvXr9PoVjp/Mj09/eHDB9yvxSGQbFO5/FW+kpbde1bUS3YvnxVsk6YFjZT7kVsaiGKbbFqeBfek3Sh+/PhBg+mxsbEnT550dnZeu3bt8uXL2dnZZKShoaH07nZzcyMdDQ8PT05Opjf4lStX2traqPHr16+/fPnCerFXYJsWj4vYJm3e6/yiJnBNYJsAmAK2aavY3DaXl5fJCQcGBkgRaZSZn59PR1kaXPr6+m7fvp3+hoWFJSUl5ebmVlRU3Lx58+7du4ODg1NTU58+Oc995ACh83ubvFJufObn2VIBm0M6+vLlywcPHtDbv6ys7Ny5czExMYGBgTt27CARPXHiREZGRmlpaVNTU19fH+1M7OfTJdimxeMKtkmb8ZEjR+h4x8oAmA1sEwBT2IltGhngCmdUbg3rVDpJNsY2v337NjMzIyllXV3dxYsXSSlJI6XLXGngSMPHzMzMhIQEGlDSsPLVq1fv379nMwPXgGyzN26zfCUtd6Jy/eG+DqrGpMrCNh0CEtEXL17cuXPnypUrubm5sbGxBw4coF1KSEgI7WEuXbp0+/Zt2u3Y6lpE2KbF4/S2SVssbcB3795lZQBWA2wTAFPANm0VC9rmz58/pduidnZ2klIWFBSkpKSEh4fv379/x44dAQEB0dHRpJSXL1++cePG/fv3R0ZG8I0UoPD27VyFh+7tZ20V2Kbj8uPHj8nJyZ6envr6+uzs7BMnTnh5efn5+SUkJBQVFbW0tAwPD3/9ut6fPUhKSh4dHWUFI8A2LR7nts2ysrKDBw9OT0+zMgCrBLYJgCns+0pa2KYui4uLNGLr6uqqra09f/58fHx8YGDg9u3bg4ODo6KiMjIySkpKJKWkZm/fvmWzAWCcb9/sK8CZoL0Q7a/IP7OyssLCwjw8PA4dOpSamlpZWdnd3U12ytqZR1tb265de//0pz9funSJVRkCtmnxOKtt/vjx49y5cydPnmRlANYEbBMAUxi1Te0lcO5lmh/fYxfaUZutiRWsXrznh3zDD+X+ltxc8k1B9MLayGdU+Cfa5Kq2uby8TOOw3t7exsbG4uJiGqUdO3bM09PT29s7PDw8PT398uXLt2/ffvLkyczMDG7GAwBwFGjPRp5ZUVFBzknmSf5J+zdy0YaGhsePH8+bPLt9/vyFgoLKwcHZ+PhkH5/9d+7cYQ9ogW1aPE5pm3T0jIyMzMvLY2UA1gpsEwBTGLHNFnf+Z/d0RFFQSvGulaKRqvei9NjmLhqjMIv4G3rKBFUK18qqP6ynG/VKWqFP5elc4tzmwsLC4OBge3t7VVUVDbmio6P9/f137NhB47CTJ0/SgbC+vr6wsPDly5dO/yt5AABX48uXL8PDwy0tLUVFRQkJCb6+vt7e3jExMenp6a2trePj46ydSEjIkba2x9Iu9ObNu/v2+SUmJulfAAnbtHiczzYHBgboUEuHV1YGYB3ANgEwhWHbfHxe/RE8Qf+UH8STwn4OQfMQb4ns5w2oGfcjfgb6UaPYpiCo6tfGnNw2c2N6d+3aRaOryMjIs2fPVlRU0OiKDoFz9DAAALgk7969e/r0aWpqKu0VDx8+7OnpGRcXd/ny5Xv37v3hD3+amFjid6Tnz1/+wx/+WFlZyWYWgW1aPE5mm52dnW5ubl1dXawMwPqAbToVS0uuHotj4tymdNKSO7cp3KxSucZV0EgzbFNpL2Zl29TeLsjJbbMyc9T+f7kOAABsyIcPHx4/flxdXX369Gk3Nw+dHSmlr2/8xIn4gICghw8fSrPANi0eZ7LNq1ev+vn5DQ4OsjIA6wa26VTo/C6cq8Ua93wx+r1N+RuYsiIKqslOVApiaaZtGtVLnbimbW7AL6AAAIBzcO3atVOnzujsSJXU17ft3u2Vnn7m7du35tum9moavfDHuBVi+KeDVujfceI0tllaWhoaGjozM8PKAFgC2KZTAds0H9P3WlAwYpvjCVt1DrHCiUrJNis8Nm+RzHMF29R8b3Oup77C+DFblUx5XrEetgkAAEAgLS29vPy6zo6Uz5s330+dyvy3f/vN0YCEa4XTOo8aDGzTzDiHbZ4/fz4hIeHz58+sDICFgG06FXZgm8Z/+nwVhyWT0eiWEuF5swzffs8A1dXV//7v/xEff7K5uXnJ5AW4xm1TufyVIi6PfLZT8EyaJo1cyTZpWtBIuR92atRQ+FOawuFZnsVl70kLAACAx9fXv6dnWNp/jo9/evjwZWNjV3HxldTU7PDwaB8fvz//+a/btv3973//dd/uY1cLppSdrYlYzjYNB7ZpP6Snp585c4YVALAosE2nwha2yV1BKheZbfJ+xYr2YpsNDQ25uSWNjd2Jiem//uqWmprW3d1t8HcyjF5Jq8a4YCPrCGwTAADM51/+5V+joxMPHDhEB7W//nWbn59/dHRsbm5uXV3d3bt3R0dHlXNWJq6kVT8AVW6cLtmg5oAuH/eFSuWjT1PHQalbuYFwKZAyF2zT5tCGcfLkyQsXLrAyAJYGtulU2IFtctGxTetmLbYpzTsxsVRb2xwdfXLXLs/s7JxHjx6xRiLGbLPCQzFn9Rra9Ud73pLFUp07VmCbAABgPpcvX25raxscHHz37h2rMoIx2yQnVIyxN24bHePMsE0zD4Xqx7LaZ8G5TRvz/v37qKioS5cusTIAVgC26VRItskZi3xskC/yVO56Srt79zL2+aK43xeOBEID6WuE2g8suYOB+pGkcthQmtFhhvv8kv/wkhZDKsqHJa5/dnASLz1NkHszesRiM+r/X0LWZptKXryYLy+/Fhp6Yv9+v8LCoqGhIWppxDbvZ//1d1u3/lcpf86a0GuArDewTQAAsAaGbfNxrv71R6uxTdPqqNgmDQbMnMWR4qC2OTs7GxYWpvMDOQBYHNimU0G2qdl3l20TjgeCksk7d/kyVFELpSMHHQM2u3sIn2Kqn01qDiH8QUL2QNH6xGn5qCO05BvrHJy4PtV5uUrRG1mlvJBsRp2oj/IHLeF5z7R8ffz4cU9PT1dXV1tbW1NT0/Xr1+vq6iIiIqq0nDhxIju7WNMtlydPJgsLq/btO/D3v28P8o1syH+t0wDZgMA2AQDAGhi3Td0j76ptU7nvnW7ksYH+LLBNGzE1NRUSEkJjJFYGwGrANp2Kt2+fqEIoRxBLdW/OjJGvpGnmhyaOB1sTr2kPJHIP8lGH1cs90LTm4KQelrQHJLk9b5jaZ9eN0pImtP0kXZtLTExMTk4+c+ZMVlbWhQsXCgsLL1++HB4eXqnFtG0+ffq6qKjG1/fg3/7294B9J2CbNglsEwAArIEtz22uYhZHynps8+tX3d7sKguO+nVUYEfANp0K0TZ1jxacTFLYQWJVtil5nWCb3GWrQtZsm9zRhT376m1T31rXeSXt8PDbiorr4eFRPj6+BQUF0k8bm3GXIMQqgW0CAIA1MPK9TeFe68poQf3eJjvOchc3CUdhfdvUGQzoRBkbcIME2KYIbBM4PbBNp8Lq5zYNHBV0DjDcgcSEbVri3KalbHNy8kt9fWtMzKmdO3dnZWX39vayRiKwTVsFtgkAANbA2F2CpCMp+zSZk0xpWjjmsg+aE9lxnw7WWzfr3oXBcLixgdSnEtimMdvUGURZMfyrw4WGW1sTn8M2wbqBbToVb99q3VL93ibbYYlHC2F6NbYpVIpHEe6jTZqrTJpdPDipRwtunyV0wh1+lD75zoVlE6dXb5v6C7la27x1615S0pnt291TUlLv3Lnz48cP9jCHEdvUfAbs9BE2G1MDAu5FXyFGWoqHtGFtJWwTAACsgXHbRNYY2CYAJoBtOhXSPWkFk2SfGvKSqakxwzaVTrh9EF+vnFdUKoUONfss5XkF5+TlUDBGqR++ZpW2yaalfoSYb5tVVVX//u+/j4uLv3379sePH1mtIWxsm+K+Xj5/a7PANgEAwGmwpm1qz1tKsYOjmLXj4LZpJOKhGbYJ1g9s06mw2O9tmvY9ew39++YzOzvLpkxiW9vkPgiwZSxnm0YC2wQAgI0C5zYtnvXapvajc3Y85WyTO2fAHhVqOI1XRgtcS/XsAj0knGMwMq4TH1IO4sIBXe5B+KQAtgnWD2zTqXAq2xSWgdvlSTHlPKuzTTMxZZse29gS6p/mVS4hpkOIR720K5eayUcCdfWyR+UGUqWYenfN+V5tM81rVO+urBmhfluFfnvhYKZ+SmpaIHUWiWssHIeUq6Plet2Dk/a/UGP6kAbbBACADQC2afFYwjaVA7T8rSXpaM49ixChpXTop2bcGECcFg7K8iFYOOCK0zSxZetm9WtNBqJ+ZKwZG9BzwTaBJYBtOhWkWwsLFsjcQJXvX3wKez+9evWeMj7+aXr66+zsd51m9pYNtk15ny4cGITdtCh4bIeuqKBwYGCVtBMnQXUXd+jCYUDcoSsTzL6UvbxRIZSfjhc/7kClN5eh9ppp3QhHJnEhKeptCbmFVGaU64VKZRbuP9KP2lKznOIhDbYJAAAbAGzT4rGobcqHUYO2yUmmerAWj6G94uFePbLL4xCTB2UpyqFZOzYQu4VtgvUD2wQq/f39ly9fDgsL27t3b1pa2q1btyYnJ9ljroo5V9JKu3JBn9TTevK+mz+EsOOBMM0aK1KqNFAPLdqdPhflAKMIW4XH5oS4bQYOFUbaGzmGidFZJDGcGWr6l+vlf1Zqb6JztaV2OcU1A9sEAIANALZp8VjWNtmxVXMwFQ6aytVA7OgpDyrko7xgm0obMcw21QO04SiHZq2viv3DNsH6gW26Op8+fero6MjMzCTDPH78eGVlpfQ7k0BidbbJlIxVCg34Q4h8YKBpoTGzTZ1jg9yYHpIbSxFmUZrx0sha1rtLHfJPYbC9aolq52rkNnwl115jiXK9cqAS64UedH1VjqlDGmwTAAA2ANimxWPlc5vckVeoVI6e0nlOelQ65kpF6SE1sE1gczbUNt/PL9ece12WPIGYSHXm5MLMV7bKrMa7d++ampoSExN37NiRkpLS3Ny8sIA9igGsf25TV+2kUAP+8KDje/y08n2MCo/N7h5sLhPtqTEtsHo40YkhV9TpTZlXrhcXQ1la4/8U1xK2CQAAtgG2afFY+nub4lFYPRyrR0w60G/RHoWFW0joDC2kfnrqK8RD+Wpsk41nWD1sE1iIjbbNK9lTb2Z+IiZSf37aerb5/v17kszAwMDdu3efPXv27t27y8vL7DFgCPNtU+NpwpFDnOYPIeKOW+eQoN2z1+sebFiRa1ZGxxXF/cR+lP65BTDWXlgGj23qzYcMRKOO6vc25SXnFlg4/onTOrNwT6cbU4c02CYAAGwAzm2bdHBRjkcGYugTVcMx0tLgMc4Stilfi8R9FCscKNWxhPwQN5YQF1Lz/4qzaPpZYYUI4Q/iwrTSAz0RbBOsn422zdqcKe0mjuimIc/ytvnx48eWlpZTp07t3LkzMzPz3r17P3/+ZI8Bk6zCNmlaPWDIhyihxpRtavfs3Fy6BzNR7ShCPeeiPYnSbYfEjCR4yEcgY+1VRZSKBsMtEltIcS5pWjy2iY9uS2AHXWovfNrKZjHVualDGmwTAAA2AIexTeFwY+KzUcNxWNtc9X8qhj++WyW47g2sH9im3cWCtvn58+e2trbk5GR3d/f09PSurq5v376xx4B5GLFNx43geMrnpvYc2CYAAFgD2OZ69My+bJP7FNuc8Gc+5aywNmCbYP3ANu0u67fN5eXlzs7OtLQ0Nze3lJSUjo6Or7QzA2vC2WyTP3gL0zpHnRVPe5qbNRzSdALbBAAAa2DcNrlLTqRjgc5hwkSltp59pim6UIJ8OFA/6NRrKSpiIrskhx2k5Ct01BqDUZtJkqnapvAsyozyJ63ahTfupVK3ymGLXxgDB8r12maF+3/5L+5V2j5XystT/+P/8V/+R/Ij3XoLB7YJ1g9s0+6yZtv88eNHd3d3RkaGh4dHUlJSa2vr0tISewysFWeyTdEA1/TpqS0C2wQAAPPx9z94+HBwampaVVXV3bt3TfyAmRHbFL4hInuU/K0Hwc0U41qxUvZJpYFwyo4zT+kAxM8uVArT/OFJmFa11vQxi7+OlH2XxAzbVGYRHJItnn64lmqfVji3aUFu3rx5+PDht9b48XEA1gFs0+6yBtvs6+tLTEzcvXv3yZMnb9++/eHDB/YAWDdOdyWtwwS2CQAA5vP3v29vbOyqqrqZmZkXHh7t6en9xz/+yc/PPyHh5KVLl1pbW4eHh798+UItDdvm41xOw+SbC2jczFTlNekhqStFQRXDpMhzqTLJteQr2bOwWUzZptqSy2psU+xBTx1Z1Ja80xqexR5ss6ura9++fRMTE6wMgN0A27S7mG+bU1NTlZWVQUFBERER169fxy7GGsA2bRXYJgAAmE94eERz8wN+Lzo1tfzw4cuGhvbz5y/HxJzy8fH793///e9+9x8+O49dLdAbjAm2yamdeBGsjliaqBRsk3MwpnzGbJO/KlW8nHXttqknfqu2TT1fZVFa6s9if7b55MkTd3f3Z8+esTIA9gRs02DEC/T19iZChF2n8esuLJEVbfPbt2+tra0JCQn79u0rKioaGRlhDwArANu0VWCbAABgPhcu5BUUVOnsSPk8eTIRERH717/+Z/zxs9eLZnQe3chzm8wGuazdNvVccdW2aXCwR1FamjGLbW1zbGzM29v73r17rAyAnQHblCLshrjdB2ebwl6G00ub2ubAwMD58+f37NmTnJzc3d3NaoE1gW3aKrBNAAAwn+Li4qiokzo7UinT08tZWYV/+tOfy8vLqaWJ723KHiiMgoRpjWgZFDZDlcJISZw2ZJs6s1eUCc9o3DZNjrh0lkT+3qbcFfe1TGXwpjOLtPDCtF7UlkIzxZDtzTbfvXsXHBzc1NTEygDYH7BNKbY8makTfducnZ29cuVKSEjIsWPH6uvrcTJzI4Ft2iqwTQAAMMHr16+7urpKS0tPnjzp4+Nz8OBBD489OjtSSmXlDQ+PXWfOZMxRQcT4PWnFsZB8datQI/qeVLNCJUUcL4mRdc6gbWpasqGXYduUpsVmJp2QdaVZPLE3ZfZNHomqFW/drMxianTHLzC3ZsTe7Mg2Y2JiqqqqWAEAu8QubVN/3yF+sCS/z6U9l/RRE3e/bHUuqYF216DuMri9D9vR8J1Tny2sSHsTbkmEHmpZUd496S+VuMfkdmQGln9r4muxpbHwttnZ2Xnq1CkvL6/8/PyhoSGpEmwkdmqbmqOgNvzRfR3hj/1c6G21+d6YTqVVAtsEAACeHz9+DA8P37p1Kycn58iRI7t3705ISKipqVGGB7///R9mZr4pe9GWlt6goCPh4RH9/f1SAwnjtqkXg8caEwcgV42tbPPMmTN5eXmsAIC9Yn+2KQkeG+bS0FYYNwsDXzaAFrVN+NBL8jdpfyeJpdhAnV2slD8eE3sQGouqyfaS3LTYWB1bc0Wdc5tc0dBSSZWsgdI//0QJyqeARkK2+fDu0MWLF/fu3UuqScL58+dPtgbBhmMvtils2NLGphTZZixsk/J2zop8y7UGtgkAAPYAyeS1a9cyMjIOHjzo7+9/9uzZlpaW+fl59jDHgQMB9++/oP3n06ev4+OTvby8m5ub2WMcjmib4jhKGF/xUcdm64o0htSGP6qaEZvYZlFRUUpKCisAYMfYnW0qWqhWigKpXKohm5sqeLzssb2GMK1M8J2c11il2jOnl0K4ojHbNLxUvIKyxtSG7SXN23lVnRs7dji2pqbmzZs3bMUB22GntslHxzatG3prwDYBAFbh3bt/kEMhlNnZHzMz36amvk5Ofp6c/DI9vfzmzXfaMfJtFhfZelNISUmtrGzMzi7+wx/+WFpaymr1WIVt9uX9eevvsvvMqHTtbLxtNjQ0RERELC8vszIAdox92qZ2VK31Otn31mGbOhGscr22qdQbtE2aFuuVp5N7M5T6C+b+AgrYAEzYpvqaypuZXg1tmZsTyoRNhSrFrUjctCjc1qVE3ZzErUuq1MwlhLYuqSh+KMO1FJ6UFTVboBj2CQ4toeb6c6mZXtjnI/K2qv1QGbYJALAKZJs6+wHERPRts6Cg4De/+b/T08/Mzs6yKkOswjYR87LBttnV1eXn5zczM8PKANg3jmebazy3ycRPe25TjdhYreeKskayh5Si4aXSLj97UlkhpOXctHlgUioazoq/gAI2EmO2KWqb8upvYy+9vL0J08L2o7NlbnP3ELcNYeMR9U/YQpStXdjq5E2LyaHYQJwWKrn3hU4bZTuXilJLZV6ukt8+5YWUZ9RGfVTz1LSQsE0AgFVwGtsUhgTG967SoYEbG5iK4R21uNt/rWebxNOnT9mUcWCbFs9G2ubQ0JC7u/vAwAArA2D32N/3NoVhsbIXFgbo2iGyMnznx/E6Y3ppWpkQulV6ECe4ITjbiWsas6L0kGZ5WFGST0NLxVdy8/Ykuos9SFIK23QgDNvm4/N631oRthntpxK0GfBDCmFabiA3Zs3YXMLG41Ev/ZVq1EHJ6m1T2w97Rr5S2Br5GbVRWmqHTdQPbBMAYBXs0jb5XTcfY/VCbGib5gDbtHg2zDbn5+cDAgI6OjpYGQBHwP5skyIMl8nZhMi7cmHXLFdKY26xho2V+WlRFIVpcUKN6gbCvptVcsN35UmVeeX9u9JeODaIzYwvldRY7lZsrMwlZcUDDGzTrjBum9zGI0TQMNU/mRzyQwphWt5yhA1MmBY2DLUfaYDCbZ/cNrMm2+Q2NvbsQufyhm2mbfKzwDYBANbDkWxTZ5+sjQVt03DE3T5s036yYbYZExNTU1PDCgA4CHZpm5aJaIzGB9N2G9imXWGTc5sGRiFrsk2tJcI2AQB2jWSbwj5H+qyN7aCEnafy6Zu8zzRYqa2XdlzizjOBdndiJbd3FQcJfKW4L02Qn13aXasLw+/hxf0nv6PWWWbONvk9v1KvXXjj+2GhPTXguuLncnTb1B5clAhHmaYRnUp7z8bYZlZWVm5uLisA4DjANu0usE27wsj3NsfpqK8MNdTvbfJjAnlIITfjxxzM/bS2KRxiBYHkTXJupKJMnF2o5MY6OrbJq6/SJ9e5OGQRpvmju1Bphm3qLyRsEwBgDcg2hT2PvF+S90L8jlTZcRmt5PfDQgNx58laqntOeSfMKpUdslyp7vf4XbcSeXctFmk5uSURDgfC8nCLocwu12sWnt8t60d5lOtTXDzYpj1lA2yzqqoqPj6eFQBwKGCbdhfYpl1h7C5B0nBB+YxZ3My4GnYE5YcU/JhDHuiIgxsl6oCGr5cPxsJQQ2nG26Z0zBYeEmvUQZI6i1LDH92FR42/QXRbsn6EZ4FtAgCswbt3z1QJpLC9mcbN5L2focpazY6R7eI0e0u279XZ+7HdHbfz5Pax/K5bDrVUZtfujaUI/XNHAWV2uV5/4eXn1Yu8K9YuhrgATnolLWzTAB0dHQEBAe/evWNlABwKJ7ZNRw1s064wbpuWCD+4QbSBbQLgaoi2yZkb0zCtm4k2omubUqVgm9weVXJCY7apfoImZjW2SQao1hhyxdXbpq6vKpFtky05q7eSbQpLoq4TnRXFFpjabE2sYPXiPy6sN9Ze6oebS3fNKGFt2FrSPNEm2KaW58+fu7m5DQ0NsTIAjgZs0+4C27QrnN42tcd4FnVMY7vANgFwNTb03KbsOWrMtU3qhNtva/pn4fo30zaNHgg20DablacQjwvaRRJWjvhvCksrLzxVemxzF/9Ttra5CaoUFl45CawX+V/TWQP0n8I2VRYXFw8dOtTW1sbKADggsE27C2zTrsC5TVsFtgmAq8G+t8l5mr6bGRQ2Q5WCngnTGhtUnE0jbxVl4jMat015kYTIz8WKeksif2+TNy7WXnhS4wsvTOtHmZ3rxzq2+ThXXVGalSZFkEChhn+It0S29jQr1lA/apT/SLsGhCeCbSqcOnWqvLycFQBwTDbaNi9Gvyo9PY6YSEHMKGzTfrCubSLGA9sEwNUQ70kr2p10nQUzEK6GwizOYCVFNDoxTOc0wsO5kFCvnd2wbXItheWh59XXJ25h2JKIiyFNq08k3hpX7mSL7r9pOLr6zboSOrfGuU1ppQn6x1aF5kmFVae7ZgzYptJezMq2qRFp2CZHUVHRmTNnWAEAh2WjbfNK1uvpqR+IidSdn4Jt2g+wTVuFbPNiwlOCvRIAAGdH+gUUvQjCo5wJNFnpWlm0+Pc2BWPkFVFYybycm2ebRvVSJ7BN0zQ1NR07dmx5eZmVAXBYcCWt3QVX0toVsE1bhWyzJHkoMDDw7NmzU1M4yQmA8+PKtikYl3o+UMoK2mZp2xzXO20rnKiUbLPCQzgZa4Ztaq4inuuprzD+L6iSyZ9Vhm2KDAwM7Ny5c3R0lJUBcGRgm3YX2KZdAdu0VZQraaurq3fs2FFWVoaPeAFwbnBuc1Wxgm3yrivqn3y2U/BMmiaNXMk2aZo3Z3Zq1FD4U5ritbvKXK5um+/evcvNze3q6mJlABwc2KbdBbZpV8A2bRX+e5vz8/Pnz5/39fW9deuWVAMAcD6+fLHHLC5+bW3tSk0919TUsbDwSedR22ZtGL2SVg1kfnWxrG0mJiZWVlayAgCOD2zT7gLbtCtgm7aK/l2ChoaGTp48efz48d7eXlYFAADWpK6ubu/evRcuXJidnWVVjo8x26zwUK6kVa+hXX+05y1ZLNW5ncSCtllcXJyens4KADgFsE27C2zTriDbLIgZLU2eQDY4JYnjZcnj7GXg6OrqCgkJSUtLGxsbY1UAAGBpmpubAwICMjIynG9XY8Q2mxO2qlqIE5uriqVs8/bt20ePHv36FYNA4FTANu0usE27gmzzWsHM9OsfyAZnZFC4hTV7GfRoaGjYs2dPcXHxp0+fWBUAAFiChw8fHj9+PD4+fmBggFU5F2ZcSYusLhaxzcHBwR07drx8+ZKVAXAWYJt2F9imXYEraW0V/StpdVhcXCwoKNi7d++1a9dYFQAArIPR0dHU1NSQkBDnvkELbNPiWb9t0hEtKCios7OTlQFwImCbdhfYpl0B27RVVrRNiVevXqWkpAQHB9+7d49VAQDAKvn8+XNxcfGePXsaGhpYlfMC27R41m+bSUlJ5eXlrACAcwHbtLvANu0K2KatYqZtStTW1oaFhdHRenh4mFUBAIB5NDU17du3Lz8/f3HNPyriUMA2LZ512mZJSUlaWhorAOB0wDYpxu/0rfnF4XXEcD/CTxi3vNSphG3aF7BNW2VVtinR2Njo4+OTl5f37t07VgUAAMZ59uxZTExMfHz88+fPWZULANu0eNZjmy0tLSEhIZ8/f2ZlAJwO17RNQS+5u29ztin9eDGrh20C2KbNsgbbJOiAXVJSsnPnzoKCgp8/f7JaAADQsrS0dPHiRV9fXxrrsyqXAbZp8azZNoeGhtzd3UdGRlgZAGcEtqmNjm1aN7BNBwC2aauszTYlHjx4cO7cOX9//5s3b7IqAACQaW1t3b9/f2FhoWueUCLbLE4YayqbQyyVmnNTHbVzbP2azczMzKFDh9rb21kZACfFXmyzwkP+zV9Z9vRqSBE3J5QlbhErRVcUfn1YaOBRL3QinD+UZ+F/KqqHzUKRDFPtWayRikJ7rqXwpKwon5NU+5d//lhU0wS5N8P6StH2o/2ZY9imvUO2WXPu9bNHn5ENTm/nx4rUCfYyrImhoaGkpKSjR4/euXOHVQEAXJuJiYnTp09HRkY+e/aMVbkeZJvVma+f3PuEWCrNVfNrsM309HTaGlkBAOfFLmyTfE+Rw964beRyggHy2in4pHBCUq4kz9zm7iH6m+Byov5prlYVRFTQP+VRqhQaSNOrv5JWnVenUu5HqTQY5VFhefiFhG3aO3Ovv167ON1cPotYNQXJD7Ji2ptK1VXdWDTzqO09exnWQW9vL40so6OjHz16xKoAAC5JbW2tu7u7K9x11jS4ktbiWcOVtHV1dfHx8awAgFNjB7b59LIqhCyyK0pFpmqcE2p0UW6s9T3JUWVTlSqVHlZtm9p+DD0jr7X6kVsKJzY1/cA2AWBcunQpPDx8ZmaGlS1KR0dHSEhIcnJyc3MzqwIAuAyDg4MnTpxISUmZnp5mVS4MbNPiWa1tPn361MvLy0rHOwDsDTuxTdUSxQgappobOx+4OtuUvE6wRPWyVSFrtk35qVn7tdmmnrXCNgFQaWho8Pf3HxoaYmVLc+PGDT8/v7Nnz05MrOsaXQCAA1FWVrZ3714XvBuQMWCbFs+qbPPTp09BQUFdXV2sDICz4/znNjlLVLIW27TIuU3YJgCm6ezsdHd3v3v3LitbmuXl5StXrnh7e+fk5Lx+/ZrVAgCckf7+/tDQ0LNnz+JXkXhgmxbPqmzzzJkzJSUlrACAC2AP39t8zWkk971NZmWCCorTq7JNQeQE99NI4EhFmTo7Z31a2+SlUemT61y8zY9upZm2qZkFtgmAIZ4+ferj49PY2MjKVmBpaamqqsrLyys3N3dycpLVAgCciNLS0n379nV0dLAykIFtWjzm22ZDQ0NsbCwrAOAa2MVdgpj+SRe7slOLXA2nnSvZpjyL7qlRna4kOVRq+J5F0RUeEtWRk0PuXrKyLvLqaKZtavoRngW2CYA+ZIBHjx4tKytjZevw6dOn6upqb2/vrKys0dFRVgsAcHCGhobCw8MzMzMXFxdZFeCAbVo8ZtrmwMCAp6fn1NQaf9wLAAfFTmzTEuHdz5ED2wSA+PjxY0JCQk5ODitbjc+fP9fW1vr6+qanp1vvK6MAgI2hurqaBvStra2sDPSAbVo85tgmHWsOHz6MX+QCLghs05LRnrdkUc+ymhfYJgAKWVlZiYmJS0tLrGw1vn//fv369UOHDp08ebK3t5fVAgAch7GxsZiYmJSUlDk6lALjkG2WJY+XnEIslotRr3qa3rL1a4TMzMzi4mJWAMCVgG3aXWCbAPBcvnw5NDR0w+7o09raGiHS3t7OqgAAds/169fd3Nys+n1vANbMtWvXYmJiWAEAF8OJbNNZAtsEQAcaR/r6+g4MDLCy9enp6UlMTAwICKivr//y5QurBQDYH/Pz8ykpKXFxcePj46wKAHuir6/v2LFjuAs6cFlgm3YX2CYA+nR1dW3fvn2Df6Ds+fPnWVlZO3fuLCwsxK1rAbBDOjs79+7dW11dzcoA2Blfv34NDg7GvZGBKwPbtLvANgEwyLNnz3x9fa9du8bKG8WbN2/Ky8v37duXkpKCr3QCYCd8//79woULR44c2cirHgBYLWfPni0sLGQFAFwS2KbdBbYJgDGmpqZCQ0MvX77MyhvIz58/m5ubjx8/HhIScvXq1Y8fP7IHAAAbTn9/P70T8/Pz6Y3JqgCwP65fvx4VFcUKALgqsE27C2wTABN8/vz51KlTNrzdwsDAQHZ29vbt27OysmjIy2oBABtFTU3N3r178UsSwM4ZGhratWvXxMQEKwPgqsA27S6wTQBWJCcnJyEh4cOHD6y84SwuLl69evXYsWNHjx6tr69/+3aFe98DANbP7OzsqVOnkpKS8BsnwM5ZXl4+cuRIW1sbKwPgwmy0bRbEjDZXziMmUhQ3CtsEYEXKy8vpWG7zj40HBgbOnz+/e/fu5OTk7u5uVgsAsDR37tzZu3fvlStXWBkAOyYrK6ugoIAVAHBtNto2S0+PP+76iJhIeeoEbBMAc2hsbPTx8Xny5Akr247l5eXW1taTJ0/SaDgvLw+3LQHAshQWFh4+fBjXrgOHgI5NJ06cYAUAXB5cSWt3wZW0AJjPvXv3duzYYT83l3/z5k1tbW1oaGhQUFBpaenLly/ZAwCANTE6OkoD96ysrK9fcWQEDsDz58/pqIRffwVAAbZpd4FtArAqhoaGDhw4UFlZycr2AXkm2eahQ4eOHj1aVVWFkQcAa6C5udnd3f3mzZusDIB98/3792PHjrW2trIyAAC2aYeBbQKwWgYGBk6cOGGfX5IZHBwsLi4OCAigIQhp5+joKHsAAGCSCxcuhIWFjYyMsDIAdk9OTk5+fj4rAABEYJt2F9gmAGvg+/fvaWlpqampy8vLrMrOkLQzKCgoJCTk8uXLVGQPAAC0vHz5Mjw8/Pz586wMgCNw+/btwMBAVgAAyMA27S6wTQDWTFFRUURExPT0NCvbJcPDwxUVFaGhob6+vjk5Od3d3UtLS+wxAFye5uZmNze3pqYmVgbAEZiYmNixYwdOxQOgD2zT7gLbBGA9XL16lSzOIe4KOzMz09jYmJSU5OHhERMTU1NT8+LFC/YYAC5Jfn7+sWPHhoeHWRkAB4H24devX2cFAAAHbNPuAtsEYJ10d3e7u7vbz41qV+T79++PHj0qLi6mcba3t3daWhpZKG4sBFwK2uBPnDiRnZ3948cPVgWAg1BWVpaens4KAAAtG22blWcmS09POHHyogcvJ43pVK4qFWn4vU0A1svQ0NDBgwdra2tZ2XFYWFggT87NzT106ND+/fvJPK9fv46rs4Bz097evnPnzsbGRlYGwHHo7e318/NbXFxkZQCAlg21TeL7t5/OncqK6vi4kzqVqw1bWQCAdTA3NxcVFRUaGsrKDsjs7CyZZ15e3tGjR3fv3h0fH19eXv7gwYN3796xFgA4PkVFRSEhIUNDQ6wMgOPw6dOngwcP9vT0sDIAQI+Ntk1XIDs7Ozc3lxUAALbjx48fGRkZp0+f/vz5M6tyWD5+/Njb21tZWXny5Elvb+/AwMAzZ87U1dU9efLkw4cPrBEADsXU1FRMTMzZs2e/fsUVPcAhyczMLCkpYQUAgCFgm1YhNja2pqaGFQAANoWGAqGhoZOTk6zsFLx+/bqjo6O4uJgG615eXgEBASkpKVVVVffu3bPzW/ICINHV1eXp6Xn16lVWtgJfvthXgJNx8+bNyMhIVgAAGAG2aRUWFhZo8OdANykBwLm5ceOGt7f348ePWdnpmJqa6u7uLi8vP336NO18du/eHRERkZ2dXV9f//Dhw5mZGdYOAPvg8uXLQUFB/f39rGwd5uc1N+GzbXD9u5MxMjKyffv20dFRVgYAGAG2aS2GhoZoN4QvogBgJ/T09JCDNTc3s7JTs7S09Pz5c/pni4uLExMTyT89PDyOHj2alpZWWlra0tIyMDCwsLDAWgOwgbx9+zY8PDw9Pf3Tp0+symrANoH1CA4Ozs/PZwUAgHFgm1ako6Pj4MGDGNIBYCe8fPny8OHDlZWVrOxKfP36dXR0tLu7+8qVK9nZ2VFRUb6+vrt27QoJCTl16tTFixfr6+vp0RcvXmCXBaxHf38/HRarq6tZ2crYwDbLtm3atK1Cp3Ku3n3T5saXbKmAE1BSUpKZmckKAACTwDatS01NTWxsLCsAAGzN+/fv4+PjSbdY2bX58uXL+Pj4gwcPbty4cenSpbS0tIiICLLQHTt2kBKQkaanpxcVFZGIdnR0PHnyhBrTCmQzA7BKmpqadu7c2dXVxcrWB7YJrAHtM2kP+fHjR1YGAJgEtml1cnNzMbQFwK6gt+SRI0fmaSgKDPHt27c3b94MDg6SGFy9erWkpOTs2bNk6bTSfHx83Nzc9u/fT9OxsbGko3l5eeXl5dSstbW1p6fn2bNnY2Njs7Oznz59+vkTv+cEGMXFxceOHdvgL7nZzZW0sE3n4cOHD/7+/g8fPmRlAMBKwDY3AhqlVVVVsQIAwA6orq728/Pr6+tjZWA2P378ePfuHSllf39/d3f3rVu3ampqyCXI4ZOTk2NiYkgqDh48uHfvXnd39z179vj6+h46dCgsLCw6OjoxMTEtLe3cuXMXLlwoKioqLS2lfWNdXd21a9eon5aWlo6ODuqTrPXRo0dPnz4l4x0eHiZFmZycnJ6enpube/v2LY32lpaWlpeXaUnYMgE7ZnFx8dSpU+np6Rv/MyeCbfYkbtn0yyY57mX/6I3brBS3xI2INjiSsHVzQhlrSW1EPxTbeNQzY+T6ERsYCmvDzm3yT7QJtuksnDlzhnZcrAAAMAPY5kZAI7PAwMC2tjZWBgDYAffv3/fy8iLPYWVgBT5//kx+ODU19fLly2fPnpFD3rt3r729vampidZ8bW1tZWXl5cuXyTzz8/NzcnLOnj1LWkLWSl4aFxcXFRUVERFB+hoSEhIUFHTgwAFyV29vb09Pz127dpHNEjt37iSnJbndt2+fn58fiS61DA4OPnLkSGhoKM1+4sQJEt3Y2Nj4+HjqNikpifpPTU2lJ8rIyKBnzMrKoqc+f/58Xl4eLUZBQUFhYSH586VLl2jZaGRZVlZWUVFBi0puXF1dTXZ95coVWniCVLlepKGh4aoM/WsK120BLTCb2hBOnjzJpvSgVbp9+/bIyEhWtgQlJSVsaiXevGklaZTkUHQ/7TWuwlWvmxN6aJps85dNWxN7hXryzG3uHmJLwR7FBsqEZi5DUa6kFWZRnk44t1n9+B1bLFtw8eJFNuUI6Lxxbog0NjbeFLl16xbtQG7fvt3c3NzS0kKDK9qldHR03Llzp7u7++7du7Rvf/DgQW9v7+PHj588eTIwMDA4OPj8+fORkZHR0dHx8fHXr1/PzMxIn14tLi4uLS19/frVnE+vaDFoZ8IKAADzgG1uEC9evKBREQ22WBkAYAfQmIPGwbm5uawMHI2fP38uLy+T0378+PH9+/cLCwuzs7PT09P0ytKY8tWrVzS+pFEmjTX7+/tp3Emjz4cPH/b09JD00sCUhqc0SKXRKo1ZafBKQ1gay9KAkga4JI0kkCSTpJTklmSYpJoknKSd5SJkdCSipKMkPwSpKUGOSpA825Zz586xqQ0hLCyMTWkhz//Nb34TFRXFyhYiIyODTa3EzKN81RJ5Y+QkUKwRbJM7z6mcvRTOcNJ0hQd3klPTWC+ybQpyq84iPFF5zyxbLFuQkpLCphyHQpkCERJmIj8/Py8v78KFC+fPn6ddd05OTlZWFm3wmZmZtGGkp6enpaXRP3v69OlTp06dPHkyPj4+JiaGNkLaGsPDw6WPrg4fPhwYGHjgwIH9+/dLn17t3LlT+vRq165dXl5e+/bt8/f3pzbUODQ09Pjx49QJTfzrv/5rbGwsPaN0dQbtB2j/QHuM1tZW2qXQHoZ2OLT/+fDhA9tDAQBgmxsJDWto1zZHRx4AgD1BoxYaiJCfsDIAYN1EREQEBwcPDw+zsi2Yn28nXZTMkDu3KZ7JlK9xFcXSDNtUr4kVsqJtagVVsE1cSWv/SJ9eLS0tLS4uLiwszMzMTE5Ojo6OvnjxYmBggIZwJLfd3d1tbW3S1RlXrlwpLS0lE87Ozk5NTSWzJaElR927d6+bm5uPjw+9BUhTyYHJk6kxSenjx48nJiboKdhTAuACwDY3lNraWlyDAYAdQuMGLy+ve/fusTIAYK3QSDolJSU5OdnmN+ISvrcp6J+kiOppTCaT4tcszbRNo3qpE9imk3Lp0qWzZ8+yghmQuJKykqySppKg3rhxo6ysjKQ0ISGBFFS6+D80NJTeKcXFxY2NjY8ePZqenmYzA+BcwDY3mgsXLpw7d44VAAB2Q19fn7+//4b9EiAATsnIyEhISEhJSQkr25T5+Unh9j+6V88ymazw2LyFieUKtqm9Cnekosy4eSrf21QmhMA2HRsSRV9fX8uekPzw4cOrV6/u3bvX0NCQn59PFhoQELBjx44jR46kpaVVVFR0dXVNTEyw1gA4MrBNG3Dy5Enaj7ACAMBuWFhYoEP+mTNnNv7mmQA4AZ2dnTRcbm5uZmVbI9qmevkr54FCUdBImhZuDrSSbXJzCVFPWuqFk0zck9Y5WFxc9PPzu3//Pitbk+Xl5dHRUfLMyspKcs7Dhw/v3LkzIiLi/Pnzt27dGh4exo24gSMC27QBtOc6dOhQS0sLKwMA7ImioiIaMY+MjLAyAMAMqqqqAgIC7OpmeNrf2+SV0gZ5944tFXAsbPuTJ1++fHn+/PnNmzdzc3NDQ0Pp2HTixAk6SJGR4j4gwFGAbdoGGsiGhYU9ffqUlQEA9kRzc7Obm1traysrAwCM8/3798zMzJMnT76zM6Mi26zwUK6A5U5Urjva85YspjuHbToipHlRUVGsYAd8/fp1YGCgvr4+JSVl3759QUFBOTk5bW1tb968YS0AsD9gmzaju7vbz88POwgA7JMXL16EhIQUFxezMgDAEBMTE+Hh4QUFBaxsT8zP9xV67fjNb/53KXsKpsg/bRXYpsMxNjbm5uY2OjrKyvYHvftu3bqVkZHh6+sbHBycn59///79z58/s4cBsA9gm7akvr4+MjLy58+frAwAsCe+fPlCR/H4+Hh8KgSAQYqLiz09PRsbG1kZACciOjragbbtV69eNTQ0nDx50t3dnQ5bV69enZycZI8BYFNgmzYmPz8/MzOTFQAA9kdtba2Pj8/G3CICAAeChrb79+/HbZyBU1JWVpaens4KDsW3b98ePHiQl5d34MCBo0eP0j/y4sUL9hgAtgC2aXtOnTpF+wJWAADYH48fP6bDNm4lDYACjWUjIyNnZmZYGQAngvb5QUFBTvADJM+fPy8tLQ0JCTl06BBN4O53wCbANm3Px48faUdw+/ZtVgYA2B/v379PTk4+deqUzX+wHgDb8vbt2/j4ePxwNHBWvnz5Qqp57949VnYKXr58WVZWRs4ZGhpaW1s7OzvLHgDA+sA27QLaC3h7e1+5coWVAQB2SU1Nzb59+3BVLXBZBgcHAwICqqqqWBkApyM7O7uoqIgVnI6BgYG8vDxPT8+kpKTu7m5WC4A1gW3aCzdv3ty7d+/Y2BgrAwDsksePHx88ePDy5cusDIDLQINUNze3jo4OVgbA6WhpaQkLC2MF5+Xnz5/t7e3x8fF+fn7l5eW4Ex6wKrBNO+LWrVvBwcHv379nZQCAXfLx48czZ87Exsbijn/AdaioqAgICKARKisD4HRMT0/v2rXr+fPnrOwCjI2NFRUV7dmzJyMjo7+/n9UCYFFgm/ZFZWUlDWFZAQBgx1y7dm3nzp0tLS2sDICT8uPHj8zMzMTExMXFRVYFgDNy8uTJ+vp6VnAllpeXb9y4ERISEhMTg8trgcWBbdodFy5cyMjIYAUAgB3z4sWLsLCwnJwcOlSzKgCci6mpqePHj1+8eJGVAXBSampqTp8+zQquCqlmVFRUaGgormIAFgS2aY8kJyc78TfUAXAyCgoKDh8+/OTJE1YGwFl49OiRj4/PtWvXWBkAJ2VgYMDLy2tubo6VXZve3t74+Phjx47hS9rAIsA27ZHl5eXjx4+75uUcADgi3d3d+/btww9yAmeisbGRxt8PHjxgZQCclJ8/fx45cgRmpQM5Z0xMzIkTJ7ATAOsEtmmnzM7OHjx4EFcyAOAovH37Ni0tjY7NuLM0cAIKCwvDwsKc4NftAViR/Pz8CxcusALQ0tXVdfTo0aSkJNxDCKwZ2Kb98uLFi507d/b19bEyAMDuuXHjhpubG/1lZQAcjY8fP9LIMj09Hd9GBq7AnTt3QkJCvn//zsrAELdv3/bx8Tl//jw+gQJrALZp19y/fz8sLOzhw4esDACwe8bGxmJjY1NSUvAVIOBwjIyMBAcHl5aWsjIATs38/Ly3tzfO2plJeXm5h4dHZWXlhw8fWBUAZgDbtHeuXbt2+PDht2/fsjIAwBGorq729PTE76MAB6Krq4uGkthogeuQnJxcVVXFCsAMyDPPnTsXGBjY1NTEqgBYCdimA1BTUxMZGfnt2zdWBgA4As+fPz9+/PiZM2cWFhZYFQD2ypUrVw4cODAwMMDKADg7V69ejY+PZwWwGkZGRqKjo2NjY3t7e1kVAMaBbToGRUVFSUlJrAAAcBwqKys9PT1v377NygDYHzk5OTRwnJ+fZ2UAnJ3h4eGdO3e+fv2alcHquXPnjr+/f1ZW1ujoKKsCwBCwTYchOzv77NmzrAAAcBxevHgRFRWVnJw8NTXFqgCwD+bm5mJiYnJzc1kZANcgIiKiubmZFcA6qK6ulr7M+fHjR1YFgBbYpiORmpqal5fHCgAAh6Kurs7NzQ2/owvsh/7+fn9//9raWlYGwDUoLi4+d+4cK4B18+nTp8zMzJCQkLa2Nlalx5cvX9gUcD1gmw5GQkJCSUkJKwAAHIrJycnk5OQTJ07g23EKnfXzlWcmr2S9RjY+OZG9Jadf6FSuM9WZr9+MY1jpYLx88vHyqXGdl9JZU3FmNDvyYfXZCZ1680O7rK6ruOxcl2fPnoWGhqakpAwODrIqmdLS0n/5l39tbW1lZS13b7ytSFv7y+FMuZw0/uTOe7ZenAjYpoPx+fPnyMjIyspKVgYAOBptbW1+fn75+fmfPn1iVS5MzdnXz/u+TLz6jjhHGvKmYZsOx9M779tr3+q8lIixDD3+QmLA1h3QcuPGjR07dpBevnv3jlX94x+/+91/lJVd++Mf/zQ+Ps6qOBouTA30fNZZya6ZnuYPrVWzbL04EbBNx+P9+/dhYWG49gkAx+XLly9FRUU+Pj63bt1iVa5KXe7U2Mi3ubl/IM6R60VvYJsOB9lm1433Oi8lYiyjL5ZJkNi6A4bIzs4ODg5ub2+n6cjI6AsXSmm9FRVVBwUdkhrw3CicGR74yq9hl01f96c79U542hy26ZDMzc2FhIRcvXqVlQEADsiLFy8SEhKioqKePn3KqlwP2KaTBbbpiMA2VxXYpjkMDQ3RSDUwMNDPL0BZdXFxyRkZmayFDGxTCWwT2BfT09NBQUGNjY2sDABwTNra2gICArKysmZmZliVKwHbdLLANh0R2OaqAts0n9/+9nfd3c+UVTcz893Hx+/atWvsYRHYphLYJrA7JicnaZCKK/EAcHR+/vxZWVnp5uZWXl6+vLzMal0D2KaTBbbpiMA2VxXYppnExydkZRXqrL17957/5je/5e8kBNtUAtsE9sj4+PiBAweamppYGQDgsMzOzubm5u7fv//69eusygWAbTpZYJuOCGxzVYFtmgMNTffvP6Cz6qRUVt7w8dmvfLQK21QC2wR2ytjYmL+/P4QTAOdgeHg4OTlZub+C0wPbdLLANh0R2OaqAts0h9/+9rfV1U06q05JcvK5xMQkqSVsUwlsE9gvo6OjBw4cwCW1ADgNjx8/jo2NjYiIuHv3LqtyUpzPNnvjNm/atDmhR7deidjgF/cy3XrnCGzTEbGBbfYkbtn0y5a4Ed16Rwhs0xyCgg65u3u4ue2Ijk68fLmht/eVzmoMCAiuqqqilrBNJbBNYNeMjY0dPHjw5s2brAwAcHzu3bt34sSJqKionp4eVuV0wDadLLBNRwS2uarANs1ncnKysbExOTll927Pbdt+jYiILSqquXfvOa3GJ08mf//7P/b29jq7bY4kbP1lk0e9Xr2BwDaBvTMxMREYGOhS3/gCwBXo6uqKiIgg5yT5ZFVOBGzTyQLbdERgm6sKbHNtvHnzprm5+cyZDG/vfX/+818PHw6NiIj/7W9/15A36dS2We++CbYJnIjXr18fPny4oaGBlQEAWj5+/Mf8vEPmzZtvk5OfKTMz33QesoesGce3TXEkIUUcT3C2KX6kvTWxV2ypSKY0oUQecIuNpcqtiQNq/w4W2KYjYk3b7FXfIELkD2J42xSnWQPdN5GQCg96aFuFMM293dg7i73LEoQ2YmXZNtZg0y97KlgPlg1sc/28ffu2o6MjPT39f/7P/+tMeLsh2+R2idIry7YEKfLmIbzc2xLknSptUUob5bMMfpe74sd8uk8hbk7KXNyWaWxT3KxszOJcmv9CXCR1xn/a36g8rxTYJnAM3rx5c/To0StXrrAyAICDbFNn545YJGvGwW1THDeoQw1hFMINR9g42KBtsuGLOJShIQg/iElwzBM+UmCbjojVbVN+F4hDeXE7N3huUxnZax4V32WChSoTfCUbzYtvKHrvnFfa9MYlVis9WzSwTctSnvFc3zbVjxikDyPkTUgMt2uVPlxQP6Rgm42ypXG7Vs20wahPqk7zu3FzNkXWP9cV31jzf6VWCzV8YJvAYVhYWAgPDy8vL2dlAICMYJviR6HS4cQFQsc5UwfXVawNwy2F4yuN89aMQ9umxhs1ldI654cpamPtXKzNNbFSO6JyyMA2HZENs01VIzU+KQ3TWcRK7r0j7HmEN5SOKmhkQN01iSN7vXelZQPbtCyGvrf5gdt56mwMbDthL7pYw15ublrezWpMT7vV6UXnUbk3ZcPTn5BaGvJSZQFoWt82uUXSBrYJHImPHz9GR0cXFRWxMgBAZANtUzjwWHXEY15gm1aMzphDr9Lw4IMbhQhRPupmoxDjAxGHCGzTEbGpbYpvE2nfwg/3hR2O8D4S3hfi7NIbRxtqoHmXKU8hPZr0UK60aGCblsXgXYLE/aG4I5VeUNorivonbR7KblOqZLtTblrezbJPHzQxtoNVtxw14tNJupiobGnmbIrcfl5rvGyDF/J/Jo/KlSywTeBgLC8vJyYm5ubmsjIAYCNtUzhuWf9ZVo7lbNNwhAMnHVDXjMvbps5YWRqIbL74VCo6XmCbjsjG2aYiDKpYcmNxtZIaC/Vb4hLFv0KNwbeb3jtIjvhE/y+va5pKCwW2aVmM3JNW3DCkiK8vvwGszjbN/PxOs/lpIvWm7XyFTVFeAJo2uAxC5T/9k6e2ErYJHJMzZ86kp6ezAgAuj2Kb7vJ5JHnQz51ZYkcLOnJsTihjH3aqxwyKctjgPgpV+pFCRxrloKX2LDcTauROeuO2KQctqqe59NoLxzDuEEiLoX+ck6O7SFxj+sfVMZlcLx6elej8F2pYt7KX6s21Zhz7e5vSamEvpbjBsIusuBdaXmnSy0r1fANpTQovbk+iOzekhm2CjWRjv7cpviPU9464X1V1Qt03yntCeQ9m6O2mM8QX55LecUK3sE2HwKBtSntC9tKrNdKeU9xmuEMYvzuVppXG4lYk90MN5K3LUMRtSd5jUw/awy63mZmxKeourTJv2TZpCWnBYJvAecjLy4uLi/tIo2wAXB7ZNvkDknBoEQ5I8sFAmBaOIvyRg44WJKjKIEk8tCgTVCn0KU+z9nyRRXk6oT3rWXgW+ZCmO5eh9tppnQiLxI6UQm/Cf8H1qZlRrheWXJ6F/4/0o7bkl1NYflqZa8bB7xIkDzvEsNdRWFHKQITWFXtUCq0raRSiRDMXX+OYgW06Ila3TTXKrkN6a8j7N+nRrdvcueE+q+d3d/pvN+0QnxVZm224S5BDYNw2lZeSOyiLRToc019hGxA3EumAzk9Ls0vT8scWFOX4aCzc9qM9zlIn7FmkrLQp8gvAbeHyV/TFeOMuQcCZKC8vP3bs2OvXr1kZAFdF90pa5lfCuEc9kLAGwpGDP4rIDVhjWUqlSr6x2IP2QMUiPJ301LKwUY3wbRCxUn8u/fbiMU99Im20iyRFnVHbv1zPrw2TnastNf2wNbNmHN42EW1gm47Ixl1Ju6qIA3qjeyTbBbZpWQxfSduTmCAflEVzkw9kTh3YJnBsrl+/vn///oGBAVYGwCUxbpvckYw5nhm2KX9CKUUZFdFDcmN1FrkZeyLJ66SWdCiVOuSfwmB7jT3qRW7DV3LtzbNNPV+VI7cUDvywTcRIYJuOiB3bprp3sp/ANi2L8bsEsVdfnDZ64Ft1xE8x5COsGr2jpw0C2wQOT1dXl5ubW2dnJysD4HpY9tymkYMTNeBHSFrf07jf5i3SIIwWw2ObPJeJ9om91NL4uM2QK2p7U+eV64WnUJfW+D+ltoRtIiYC23RE7M82hR2LJQXDooFtWhYjdwmStgEpdrolWDywTeAMDA4O+vv719XVsTIALoYR2+Q9TTzCCdPChAnbVOaVGlSUMUkTZIxXPrXZSILHZm4WoR9F7dQFMNqelmGzO9UYs0GKRh2V723KS84tsHphks4s6tPpRWmp/celNbNmYJtOFtimI2JN23TCwDYtixHbdMXANoGTMDs7GxkZmZ+fz8oAuBLGbFOyJvYxKqedpmyTpoWu9OfSFTZR7dins7yLyvdOFCPfp45irL2qiMpc+uEWSepQ6k2aFpxWfEj8XQGxK2q/lZxWqjfZOb/e+H9c7Fyf6upqNmUS2KaTBbbpiMA2VxXYpmWBbSqBbQLn4efPn5mZmYmJiYuLi6wKANdAsE29/bvDRDDD1V6QtkHRobOz889//s89e7yuXr3KqowA23SywDYdEdjmqgLbtCywTSWwTeBsVFRUBAUFPX/+nJUBcAEc2jb5L1UqZym5rHTa08wI53t1elbO3BqNDnV1dWfOnO/ufhYZGe/r63/79m32gB5lyeMVaZPVZ18jzpGC6FHYpsNBtlkYN6bzUiLGUp42UZE6wdYdWDc1Z1+XpUzorGTXTEnieEvFLFsvTgRs06Vpb293c3NrbW1lZQCcHUe1TdEATX1j09bRISsru6zsqvRQa2vvsWPHg4IOG7xFGR1fBx9/Hhv5hjhH6i9MwzYdDrLN1isLOi8lYizPepeuZOEn5SxGw/mpp/eXdFaya+b+7UXYJnBCXrx4ERwcXFJSwsoAODVfviDrzbt3X16+nHr4sL+pqaO8vC4r62J+fkl6enpVVVVvb+/79+9pPR8/HtnS0qu4KKWxsTso6EhoaPiDBw+k10ICV9I6WXAlrSOCK2lXFVxJa1lwJa0SXEkLnJalpaW0tLRTp069e/eOVQEAgHl8/vx5ZGSko4PMs5z2JEeOHHF3d/+P//jDwMC0znGUUlfX6ut7MCoq5unTp9LssE0nC2zTEYFtriqwTcsC21QC2wROTlVVlb+//+PHj1kZAADWxMLCwh/+8CedgyifysobO3d6xsTEDg8PwzadLLBNRwS2uarANi0LbFMJbBM4P/fv3/f29q6trWVlAABYE/v3H9A5iCoZG/vY3t536dKVnTu9/vt//x+5MQ9hm84U2KYjAttcVWCblgW2qQS2CVyCN2/eJCQkpKWlffz4kVUBAMBq6O7ujoyMVw6fr14ttrY+Kiysjos77ePju23b348eDc3NPX/79u3+/v7KjFewTWcKbNMRgW2uKrBNywLbVALbBC5EaWnpwYMHcVUtAGANFBcXR0TEXrxYER2d6OW179df3cLCIvLy8lpaWsbGxlgjGVxJ62SBbToisM1VBbZpWWCbSmCbwLW4d+/evn37qqqqWBkAAMyjs/OOp6dnQUFBe3v75OQkqzUCbNPJAtt0RGCbqwps07LANpXANoHLsbCwkJycnJCQMDWFvSoAwCrANp0slrXNT58QNdYDtrmqWNY2v37VfaHtLdYGtqkEtglclPr6+p07d96+fZuVAQDAcsA2nSyWtc35ed3+XTZWvZcCbHNVsbht6vRvV1lYYMtpPWCbSmCbwHUZHh4+ceJEenr6wgbsdQAArgRs08kC27RS1mabS0tLbMoksM1VBbZpDoODg2xqJWCbSmCbwNWprKz08vJqbm5mZQAAWDfm2mZP4pZN2yp0KrlUePyyyaNep9JgjLSsd9+0uXZIpxJZdVzRNjdk43wwzdaJ+YSEHP397/+YmprW3d398+dPVmuI1dimsDAJPTqVVonhtVG2bdPWxH6dyo3NBtnmStuV5TKSsPWXLXEjuvXiqn6+Vtt0c9vh47O/oKDg2bNnrMoIdmGbwto2sGH3xm3+f++9rlNpvcA2AfjH8+fPIyMjk5OTX79+zaoAAGAdwDadLI5um7R5GBh2m4692mZSUvL16511dS3R0Sd37fLMzs559OgRe0wLbHNVgW2aA9nmkycTRUU1hw8fDQw8XF5ePjo6yh7TAttUAtsEgFFXV+fm5lZbW8vKAACwVjbeNo0EtmmZwDb1Y5GNc222eft2j9TJixfz5eXXQkMj9+/3KywsGhoaYo1E7NM2DQe2uWFZt22+efNd6urBg5Hz50v8/AJCQ8NpDPnmzRvWSMSer6SFbVoE2CZYC1NTU2lpaaGhob29vawKAABWjzHbpGP8pk2/iBHHW9zAS+MD4nioVxrQs/byLIbCupWH/tyzUGCbFog1bFN9ceXXWn8DEF5Kj3rpBXUvY23EGZka6XQibVEJ8gYgdchvDyack2u2cRvnOm1TyZMnk4WFVUFBRw4dCq6oqBgfH6eWhm1T+L+UBVAWjLNNvoHyKkirV4yyNnTXmFTDvV5Sez5sFvakwsk3uQfhuZzNNmlTUf47ZdvjtituBXKr1LxVLT0kboSGPyaQtk/2pHqr2iK2qaSz82lmZp6np3dMTNytW7c+fPhALY3ZprRgypL0CtueUqP+d+5lrF78F+TlV1eOOpf8P+pHaqOsH/6JfoFtrh/YJlg73d3dhw8fzszMxE+kAADWhkHbFAZMyrmgsm3CYNScAT0/TOfGYTpRW3J9SmNo2Ob6U5//uvhCXZlJIiIi2JQeZ86cYVMi09PL/MvdG7eNhoMGNwDxRd/sLtcLbagoawy3eYiDUZoWTYn1I0yrUmp8SCrEVhvnla4RtlL0yMnJYVNa/PwO6Numkvv3X2RlFe7a5fW3v/097kihEdtUxt/KxZbCwuhJizA613uUTfP/svAPGnq9DEZZGzrrnHqwuW0WJD5ha1lLSUkJm+I4fvw4mzLE7dsdwj+leblFA9dsA3KEltIaNndV0wT/XjAU5cU1sKr7JpdoIXNzc6WlXZGTJ09KE3/601/0bVNJU9P9+PiUP/7xz3//+695CQ/1bZP7X4QVon1Xyu9i6d9ka4kqN7t7CLsIdR2qE9L6NPzRhhBuaxfWmPx0tBiwzfUD2wTrpaamZseOHbRn+fr1K6sCAADzMGSbL9XxgRJu4MUPBQwO6LXjMN0oLTXjKnEW2Ob6Q7ZZXnTjikmioqLYlB5ZWVlsSmTmcZH+l6kMbgD8OFtqo764GmuSxuvbKjSV6pBU07mBcINXJRuycdbfG2UrRY+LFy+yKS0HDwaasM07d/rT03Pd3Dx27PBICC1eyTaVNWx4+ZV/XF0D7N/XrjG5T53Xy2DktSGohdqD2K3NbbPwVD9by1qqqqrYFEd0dDSbMkR7+122Tcr9s3+c2664qOvfzFUtr0a53kAU2zSwqp+8/kwLWVBQIC3tiiQnJ0sTf/7zX43Z5szM9+vXOyMjE8hId+7cmZ/Yq2+b/GLr/wvKG0SnmfzuY/+Rqd2CTtStXbOFUw+wzfUD2wQWYH5+/vz58/v27bt+/TqrAgAAMzBim+rBnoUbeHFDChMDej0lkKO01JsFtmmBWPhK2v4S/QG3wQ1AGX0aaCNsPOp1cWLWY5u22TgtdSXtw4cvL1y47O8feOxYWF1d3czMDLU0fiUt98+qSqMZi6trVVpg7r8WV4Xw/6pthAiz67xeBiOvBO0aE/t3xitp1e2crRxuu5L0SVmHbG2Yt6rlR1nnhqLYpoFVbdkraZubH6aknNuxY1diYlJ7e7t0lsLglbTipiX9+8JSsX9BWFHyf6f35uL+U842lfZSjG11ytau3eypB9jm+oFtAosxPDyckpISHBzc1tbGqgAAwCQ2PLepPwtsc/2xgm3qvpQGNwAde9G00Yza5WjGlOogWzOjgWiH41I2ZONcp232908VF18JDg4NCDhUVlamc3dQc2xTWMPCv6MuP7fORRdi01IDqpGaGf5/dV4vg5FXAvWgq0DObZvsH1e3K2H1sjUgVCprw6xVTb2Z3KQpzM0MrmqL2GZX17Nz5y7u3bs/MjK6sbHx3bt3rJGIke9tihsVr4jyG4qmhVWk9+bi/lP2H5mzmbEoW7veZg/bXD+wTWBh+vr64uPjQ0NDOzs7WRUAABjB4Pc2+QEEjTCE0Q83ApBHvTQtDkf0B/TcoEQ/akvNCE8YqME21x9L3yXotTwOFjqXvrdpcAPQGVZy405W5DaPeuFF14wp1UG20NL4xkPR2dI2bONcm23W17dUVt6IiIj29t5/8eJFY798aIZtCv+OuIq060pe2i1b1fVPK2GLB9Wwf5NbJ9RnfYWyopR1YiRK//or0KltU3i5hdWurn9+nW/ewl3sas6qprXHvxcMhbkZTeuv6vXY5oMHI3l5ZQcPBh05EnrlypXpacMbsWHbpGfXbiHqf9eT6E7bmzjNLzD3nyr/kbrqhAZlmg41Ude2ujYo9KSwzfUD2wRW4cGDBzExMWFhYe3t7awKAAD0MGibFGEMwa59YoMwsUYde4kPbU6IY2N3YZxB4w+pXhlvGQo/OhGGL6wroTfY5vpjhXvSitqmeWUNbADCS8mNTblxpxSuE2krMmKbaufGtyKbbJxrsM0jR4795S9/PXcu6+HDh6zKCObck5Yff1NRXF3yPyssM03L61OckV//3Bpj61nn9TIYbm3wL5+wDp3RNtV/ULUjZbuSGwgPiRLItiIzVjXVaN8L+uH9SndVr9k2d+3ac+BAwOXLl1++fMmqjGDUNpXFYP+jvGzCvy9M0z/IbST8f8r9R/xmbOLdp7dDYLPgnrSWALYJrAgd4eLj44ODg2/dusWqAACAw5htIg4aa/wCCkL5+JGtk1Xx/ft3NmUSs763uYpw5umMsfaVtKuJ1Vf1wlpt8/nz52xqJYz9Aoqata8fBwtsE4A10t/fn5qaun///qqqKp2L9QEALo71bFN7aohFOWmAWClOZJua8xssJs9Mmp81bJxrs00zsbBt8iffzAh/Ok6OXcuqHdmm9Vf1mm3TfAzbJm1+/Hl+C731rPq+Xn9gmwCsi7Gxsby8PHd395ycHPM/8QIAODc4t+lksaxt0kgXkWID23xWF7Q9oPyZtnKFzJQf+uv2Q3VDuvVOFYvb5kJb2vbtae16L7rJzFQc/uv2w3XPdestH2tj0DaHWtKCtv91O0tam/ZRZw1sEwAL8OHDh7q6ukOHDkVFRTU3N3/79o09AABwFn7+/Hnp0qX+/v6lpSVWZRzYppPFsrYJNgbDtokYiWVtE6x8Ja3LBLYJgCXp6elJTU3ds2dPXl6esbvkAQAckfT0dG9vv6CgI3/5y3/u3++XlHS6urq6t7f3/fv3rAUHbNPJAtt0RGCbqwps07LANpXANgGwPPPz87W1tUePHg0JCaHx6OTkJHsAAOCwNDc3JySkSMfOR49Ga2tbMjLyjhyJ+PVXN0/PvXFx8aWlpXfv3p2dnaXGsE0nC2zTEYFtriqwTcsC21QC2wTAigwNDRUWFvr5+Z04caK+vn5qCvtxAByVwcHBgIBgnYOolP7+qevXO7Ozi0JCwn//+z/+8z//bxdiH8E2nSmwTUcEtrmqwDYtC2xTCWwTgI2gr68vLy/P19c3PDy8qqpqZGSEPQAAcBz+/vftOgdRPn194zExSdu2/T09Pf1K1sQKtrnKmy6uO/xPzzlEjC+wpX42wHA/hn96AbbpiDiuba70u53mv52NtBT3P7PaStimZVmFbQr3Sd6Yn0IxvD2Y8zux6wlsE4ANZWBg4NKlSyEhIQcOHDh//nx3d/dHq96SDwCwDhYWFvr7+5uamuhte/r06d/+9t+Hhxd0jqOU58/n0tJyyDPLy8ulXwJc+Upaq9umMKrgfnzC/OGprWJ8gXXWFWwTmId92KbOhm1WYJtOAGxTCWwTANvw+vXrGzduJCUl7dq168SJE6WlpY8ePfr8+TN7GACwgXz79m1qaqqvr+/27dtlZWWxsbFhYWGenp6+vr7R0dG5ubn19fU9PT0BAUGdnU/5g+j4+Kfs7KI//OFPFy8WfPjwgXVnj7Zp/zG+wFZfV3xgm84DbNNoYJvWxy5t03Bgm2sDtgkcif7+/qqqqri4OA8Pj4iIiMLCwq6uLuleI+tkaQlxpHzBaNbK6FhlZmZmZGSkn5/fjh07goKC4uPjSSxramouXrw4PDz86dMnNpvMmTMZVVU3pcPn7OzPixcr//a37efOZb1584a1kDFim8IYUf+nt9WfJmc11GxzQhmNP4RKcZwq/3K3MiAQRidsLjaQVWsEWeJ/7pwaSEVleCqMLdijpoY4egu2+kUVzh/Ks3ALoL/8RheYayk8KSvKi62/HsRhdILcG6vUj7YfboVQYJtOgnHblLdStk1qhFAeeUufO4gtha1dp6jfieFtT2fDlp5CPzrvLG70b3DZDO9J9KO+j4Si7lywTati2DYN7hKF3ZGBfZGyccqvIEXaDoVpnW1Gb4uV2mui3R7UDViIcnCxQmCbANgRP3/+HBwcrK+vT01NpRGwv79/SkrKlStXaHC8uLjIGq0GGi3rvOcRew5s01LQW4kMcEWr7OjooHfc/Ly5R8GqqqqzZy/SK1VaenXnTs/k5JTR0VH2mBaDtsmNINnAlAYEwuFfHhkI08pQUh1AbHP3EAciwohEHGcoE1I/4jTNy41IKJpBKj9k0VkMYyNgvsPeuG3SU6x6UYXFk81QHNwIT2do+U0ssLKu2ENKn0I/8iyaZ5QrNc+uF00//ELKy8YFtumIGLFN/iUeSfCgTUuz7clvEKHZlq2aDUNb5Lc9cdrwtqezYRuI/nuNe5MaXDbu3aG+GVkbbdSW+vsf2KZVMW6beluRZhckR2gp79OUHaA8zb3owkssTutsogajbg/arY7bNqwQ2CYA9gsNl7u6ukpKSuLi4ry8vAICAkg+Kysr7927Z+btbWGbjhXY5qr4/v377Ozs0NBQd3f31atXi4qK0tLSjh8/7uvr6+HhsR6rNAa9H729fX18/GJj40z/oK4h23zPjxrlQQM3ZpUqhTEHP5QUpuUGrLF2cMkaC8MFzXiFn5EVxT61z2gsiryplWtZVLkZm0tacoPLb3yB1QEWe0juU/iX1Xq5Pf+MBv4LLnw/6vLQksM2nQSDtqndbKRotj15e9B5p2iKOp2wTdrwtqezYevF0FbKbZMGl417d1AMugqL0lK7GOJ7CrZpVcywTXnLMfwKKvsidadE7YVXU2ebYX3qbLEGo2wPap8UbnuzSmCbADgMZJh3794tLy9PTk4ODAzctWtXWFjY2bNnr1y5QvVjY2Nfv35lTWX0bFOzf9mAaIeV9h/tIZyPoQHBWqI90shh4wDYJg9tz3O0akZGent7W1tb6+rqyCczMjJiY2ODg4O9vLzoLUBvhKioqDNnzhQXF5Nwkg2SfFrkKnRjREScoOVhBeMYss2XurbGbJPbrtiYg98O+TEiG0wIbyv+Cij5yihhxEBFNgjmZ2RF/UGG0RgY/axlUXU2eGlMY2T5jS2wsq7kh+Q+dUZIbBzGP6Ppt63cUrubMrx+YJuOiFHb1D0qabY9uYHOlqApsvcaH5rF8Lans2HrxcB7jV9Ig8vGvTsoprZzpaX8lpTqxfcUbNOqmGOb7AXVbAPCS6ZsV9JLxnZuykYotFfbiKHZDe+7tJG3B+02w21vVglsEwBH5fPnz8PDw21tbaWlpSkpKUeOHNm5c6e/v39MTEx2dnZ1dXV7e/v4+Lz2PW/OzmhdkfeJatGqu7B1R3Mg1xzCdUYApg7nq4n2SCOHLYYr2OaXL18WFhbGx8efPXvW09NDGkmWWF5enpeXl56eHhcXd+zYMT8/P9qYPT09AwICjh8/npSURJv05cuXqWVHR8eTJ0/Gxsbev3/PerRLVmOb2kph8+C2Q80myhrrvMu0UeblZ+Trtc9oLAY2+LUsqs4GL+0QjCy/sQVW1pX8kNynMEJS6+X2/DOaftvKLbW7KVpyA7PANh2RdZ/b5LcETdHw6NzwtqezYevF0FbK9W9w2bh3B0XoQX2XaaO01Hv/wjatzJrObXIvt1ApT4uvl/CtdWnTNfyKG953aSNvD0IPK23PlgtsEwCnYnZ2tr+/v6WlhYbvZ8+evX27W/ueN2dntK6YHAfbYTQHck0M782tFLYYDmSbJI3kezMzMyR+Q0NDjx8/vnv3LqnjjRs3rly5QmZI9piZmUmiGB0dTQJ58ODBvXv3urm5kUMeOHCAamJiYlJSUkgji4uLa2pqbt682dXV1dfX9/LlS9qMHf3+zAa/t6mxGmn0oKkUNgO9oSS/icrjRc1AYaSiTPOOkztUemPNlD51FsPw9q9ZBhqLyN/bXO2iaoZW8v7H8PIrfbJ6tWehE27HpfTJ96O04Z9RO6LSjdKSn8XIThK26YgY/t6mdvMTv7fJb9vCpitO62wJ+kVla/9HRZk4r+FtT2fD1g//JmLvNWH0LyuxoWXTmcWEKqgtdd74sE1rY973NsWNRN1a1O2qwmPzFnWPSq/jZneqkV907atZL3aos4kajLI9mL8JWSCwTQCcGelKWmE/ol5uIe+MhF2epoZ2Xu5l4sGMu7BNaKB+DMwelRtIu0ipRuiEfyJqwIryLox7VNnVGoiBZqtdVHWpxKj7UN3lF/bXcg3t06Wi+JDaUlwMqSivOq5/diQQj9yrvQ0m93+xuSxlm9+/f//69evS0tLi4uLbt29J3qampsbHx0nknj9/PjAwQFL34MED8sOOjo7m5mYyvatXr5LylZeXX7p0KT8/PycnJyMjIzk5OSEhISoqKiwsLDg4mCzRx8dn165dkjT6+voGBQWRN1KDxMTEtLQ0UseCgoKysrK6ujrqkzqnZ+nv76fnnZ6epoX59u0bW0Rnx6BtqhuqFPbO4irZtsqPA4RpeYsStkN1k1P6EefiNmZ5A1M2VKEB36ehxgbCLdiaF1VvI2ed6y2/kJUXWHwPCvMa3TloHhU6lOv1w7U0vJPkAtt0RIzcJUizD2fbmFqzLYE2BmELpG2Y3xJ0ippO2BvE2LantFQ2dd3ov9fEg47uEU1ZNmovqAibxWi3FN13KJuFAtu0MsZtU30VlF2iuIsTNxi5Adt/su1B2kfxWyD/akr1epuogfDbg7iNKTG1Fa03sE0AnBnBNoUDlTKglHdGwu5M3ivJB0hxZye1FI5k7h7CJ6zS/kjcISoT7OBH0zSLMhyUolMj9CnuwoQdpbIvM34bTAPN1rCo/GFe3bcaWH7pUW5huB2xZr1xfarzcpXCgsmV8kKyGXWiPiq/FsI0W4zq6msHDx6Mj4+Pi4uLiYmJjo4mkTtx4kRERER4eHhoaOjRo0dDQkIOHz5MmhcQEODv70/KRwa4d+/ePXv27Ny5093dnVTQw8ODilS5b98+akMtaRaalzqJjIyMjY09efIkmWR6evq5c+dyc3MvXrxIkkmqScLZ0NDQ2NjY0tLS2dl5//79x48fP3v2bGRkZGJigqz1/fv3X758+fnzJ9vCgBGM2KbrxfTbwXEC23REjNomYiiwTctizpW0qwjNKJunwwW2CYAzQ7ap8TfZcBQJlCsF1eErOWlkAib0w+3ppMbih22a/SY3o9pMY3qmYqAZv1RmLqoqgWIDacmvGVr+Ndimdj3I7fnjh/bZdaO01Bw52GK8eDFRXV395MmTp0+f9vf3DwwMDA4ODg0NvXjxgnzv1atXo6Oj4+Pjk5OTU1NTb968mZubW1hYIAP88OHD0tLS169fv3//zl57YFMcyTaFLZb7hFuK+qZbX9Y8tLJcxN2U7j9oxu5IE9imI2J3tmnN95pwUNPp2cSRyFBgm5bFsrbJDXXMiTBY0t0ebCersE0AnBmyTV7MxB0Qs01ut8VUh2/JNWBCZWDEJjZm9fJeTGeHKPfJnlepNxIDzdawqLq+J3qdYJv8wlOEHliHrKXSA00LnRixTfmpKezZ+eOHzrPrRG6pb620GLgnrdOAc5ssdmCbFgls0xHBuc1VBbZpWSxmm+KHFNxAyPEC2wTAmTFhm9pK82yTsyxtVEnjZhQi98meQqk3EgPN1rCoOr4neZ1gmwaWn2keX2S9mbBNS5zbhG06N7BNJwts0xGBba4qsE3LYtg2XTKwTQCcGeF7m5oP0pht8pWC9ojTKyicVgXZLfjkKPMKE9zVGpp6RfaMf2/TQLM1LKrG95jIGVl+4VH1GdV/ln2aqC6n0iffubBsuuvTTNs0uJCwTacBtulkgW06IrDNVQW2aVlgm0pgmwA4M4JtMklTriBlhsNVMk1aQeFoWhQwNpeolMIs2k4kqdM04PrUa2wg+s1Wvaj8cvLXn+gtv6ZS6JD7Z7nnFZyTl0PBGKV++Br5n+Jb6odvqfbDngW26TTANp0ssE1HBLa5qsA2LQtsUwlsEwBnRrJNl4tp37PjwDadBtimkwW26YjANlcV2KZlgW0qgW0C4MzYr23ypxmVqFe0ri/2YJtr+gdhm04DbNPJAtt0RGCbqwps07LANpXANgFwZsg2FxZcL4PVfn/ZVzqoV2/3gW06DbBNJwts0xGBba4qsE3LAttUAtsEAAAALExZ8nhVxusr2VOIc6QgehS26XCQbRYnjOm8lIixVJ6ZrEidYOsOrJvLycMV6ZM6K9k1c/n0eEvFLFsvTgRsEwAAgM2ozpwcePj51fNlxDlSd34atulwkG22VC/ovJSIsfT3LNWcm2TrDqyVhYWFmzdv/vnPfzkT1tXX/UlnJbtm7t56D9sEAAAALAmupHWy4EpaRwRX0q4quJJ2PQwNDZWUlAQGHvrDH/7k5xf0z//8z6Xpg7iSVgqupAUAAAAsDGzTyQLbdERgm6sKbHO1fP78uaOjIy0t3d3dw8vLJz09t6Wll9akv3/QlStX8L1NJbBNAAAAwMLANp0ssE1HBLa5qsA2zWR8fLympiYsLPw3v/ntkSMRxcU1fX0TymrMzS2JjIymZrBNJbBNAAAAwMLANp0ssE1HBLa5qsA2zcHf/8D27TsSE9OvXeucnPyisw47Op785S9/ffPmDbWEbSqBbQIAAAAWBrbpZIFtOiKwzVUFtmkOUVHRJ0+m66w6JT4+fk1NTVJL2KYS2CYAAABgYWCbThbYpiMC21xVYJtm4uvrV1nZqLP2KKmpOcnJKawRbJMLbBMAAACwMNWZk88eLtHoDXGOVJ+bOBWT8/TpU/YCA0eAbLO1ZkHnpUSMZeABfgHFLJ49e/b73//h8eNxXqhu3OjauXPX0tISa/SPf9TnTj25+0lnJbtm7jUt4hdQAAAAAEvSfX3hStbrhgtTiHPkyrnXV6s7Dh8+fPr0aRprspcZ2Ddjg58q0iZ0XkoXzKXkwQtxvTqV+qk59/rujQW27oBJgoODvb39FNUcH//k7r7z7t277GGRnqZ31ZmTOivZNVOROjFwf5GtFycCtgkAAAAAC3Pr1q3AwMCUlJShoSFWBYDdQ1vsxYsXWQGsg5cvX5Jq5ubmRkQcP3u2QLLNuLjknJxc1gK4DLBNAAAAAFiFxsbGgwcPpqenDw8PsyoA7JgfP37ExsaWlZWxMlgT5eXlfn5+ra2tUtHNzf3mzbvV1Tf9/PylGuBSwDYBAAAAYEWuXbtGQ8+MjIyXL1+yKgDslY8fP4aFhdXX17MyWA2vXr06duzY2bNnp6bUGyl1d3f/7W+//uEPf8I3ul0T2CYAAAAArE5DQ8P+/fvPnTs3NjbGqgCwS2ZnZ4OCgpSf6ABmUlpa6uvr29zczMocGRkZ+fn5rABcDNgmAAAAADaC79+/19bW/vWvf71w4cLy8jKrBcD+GBsb27dv3507d1gZmGRwcDA4ODgrK2t6eppVASAD2wQAAADAxjE1NVVeXu7t7Z2bm/vx40dWC4Cd8ezZMw8Pj0ePHrEyMEJBQUFgYGBHRwcrA6AFtgkAAACAjWZ6erqysnL//v2ZmZlv3rxhtQDYEw8fPty1axfuq2yMnp4ePz+//Pz8hQX8JAwwCmwTAAAAALZhfn6+trY2MDDw9OnTIyMjrBYAu6Gzs3P//v3j4+OsDEQ+f/6ckZERFhZGwsmqADACbBMAAAAAtuTDhw83btw4duxYVFRUb28vqwXAPrh169ahQ4fm5uZY2eWhFeLh4VFRUfHlyxdWBYBxYJsAAAAAsD3fv39vb2+PjY0NDg5uaWlhtQDYAbW1teHh4UtLS6zsqkxMTMTExCQmJuLqYmA+sE0AAAAA2BEPHjxIS0vz9vauqalhVQDYmtLS0vj4eFZwSWgN+Pj4NDY2sjIA5gHbBAAAAIDdMTQ0lJeXt2PHDvo7OzvLagGwHWFhYampqazgSjx48CAgICAnJ2dmZoZVAWA2sE0AAAAA2ClTU1OVlZUHDhxISkoaGBhgtQDYiMzMzOzsbFZwAV6/fp2WlhYaGnr//n1WBcAqgW0CAAAAwK759OnTrVu3jh8/fuzYsdbWVlYLgC1ISkoqKipiBefl58+flZWV7u7utbW1rAqANQHbBAAAAIBj0NPTk5aWtnfv3vLyctyyBdiEb9++RUdHk4mxsjPS0tJy8ODBrKws/BYuWD+wTQAAAAA4EiMjI4WFhZ6enpmZmfiVTrDxLC4uBgUFVVRUsLITcf/+/YiIiPj4+P7+flYFwPqAbQIAAADA8Xj79m1DQ8PRo0dpcHz79u3v37+zBwCwPhMTE4GBgU1NTazs+Dx8+DA2NjY8PPzu3busCgBLANsEAAAAgAPT29ublpa2Z8+eixcvDg8Ps1oArMzY2Nj+/fs7OjpY2WG5f/9+TExMaGioE/wvwA6BbQIAAADA4Zmdna2urj506FB4ePjVq1ffvn3LHgDAajx//nzPnj2Oe7/WlpaWsLCwEydO3Llzh1UBYGlgmwAAAABwHvr6+nJycnbv3n3q1KnW1tbPnz+zBwCwAk+ePHFzc6OtjpUdgbdv31ZXV/v7+yclJfX29rJaAKwDbBMAAAAAzsb379/v3LmTmppKJpCSktLW1vbx40f2GAAWpaenZ/fu3UNDQ6xsxzx9+vTs2bMeHh75+fmvXr1itQBYE9gmAAAAAJyWpaWl9vb2tLQ0GmGfPHnyxo0bMzMz7DEALERnZ+fevXvt9nrU+fn5urq6I0eOhIaGXr9+Hb8eBDYS2CYAAAAAnJ9v377du3cvJyfH19f36NGjJSUlT548YY8BsG7Ky8sPHjw4NTXFynbA8vJye3t7UlLSnj17Lly48OzZM/YAABsIbBMAAAAArsXz58+rqqoiIyN37dpFY/GrV6/iqkKwfq5fvx4cHDw/P8/KNuL79+/d3d0ZGRkeHh7JycmdnZ0/fvxgjwGw4cA2AQAAAOCifPjw4e7du/n5+SQJ+/btS0tLu3HjBswTrJna2trw8HCbfEmYNua2tjbpovHExMTbt28vLi6yxwCwHbBNAAAAAIB/zM3NdXR0XLhw4ciRI15eXjRer66u7uvr+/TpE2sBgBmUl5dHR0cvLy+zspV59epVXV1dTEzMrl27SDVbW1tJO9ljANgBsE0AAAAAAA3v37/v6ekpLS2NjY3dvXt3SEhIdnZ2Y2Pj8+fPv337xhoBM6C1ZcPYiuLi4pMnT7KCFZibm2tra8vKyvL39w8ODi4oKOjt7f358yd7GAB7ArYJAAAAAGCKV69e3b59+8KFC+Hh4e7u7kePHj137tzVq1efPHny7t071ggYYm7OZrGhbRJ5eXmJiYmsYAmmpqbIMHNzcw8fPrx///4zZ840NTXZ1U2JADAIbBMAAAAAwFx+/Pjx8uXLlpaWwsLC2NhYHx8fGvrHx8cXFBTcunVrYGAA/smjY4AbGdvaJpGQkJCamsoKq2dxcfHx48dXrlxJTk729fU9ePBgRkZGY2Pj6OgoawGAIwDbBAAAAABYO/Pz82QF165dO3/+fFRUFPnn3r17jx8/fu7cuaqqqs7OzhcvXrx//561djF0DFBKhccvW+JGdCrV9CRu2bQ5oUevXj9GWvbGbd7kUW9z2yRokzh9+jQrrMTk5OTdu3crKytTUlICAgK8vLzi4uJKSkqoco7+KwAcE9gmAAAAAIAlWVxcHBoaamtrKy8vz8jIiIiIIAXds2fPkSNHkpKS8vPz6+rqyEKfPXs2MzOzYbeTsQm8BCpxHdskpEtqdX6D5O3bt4ODg7SFlJWVpaWlHT16dMeOHYcOHSLPrKioIL3EJbLAaYBtAgAAAABYnaWlpbGxsQcPHjQ2NpaUlJCFRkVFBQQEeHh4eHt7k4gmJCScO3fu0qVLDQ0N5CGPHj0aHh5+8+YNzci6cEB0PFCKxWzTSOzBNn/+/Pnu3bvR0VF6HY8fP+7l5ZWdnX3y5Mng4OBdu3bt378/MjKSXu7q6uquri5q5twfOgBXBrYJAAAAAGBLFhcXSUQfP37c3t5eX19PwkkekpiYGBERQTrq6em5Y8eOffv2HT58mLyFjOXMmTPnz58vLi6uqqq6evVqU1NTZ2dnT09PX1/f4ODgy5cvJyYmZmZmFhYWPnz4QLJKJmOrG5aK+lfvvumXTWIkyVRtUxDLbRXMEkcStv7iXiZVsvbKLIYidat4qfosQixkmz9+/Pjy5Qutxvn5+enpaXqZXrx40d/f39vb293d3dLScu3aNXoV6LUgmUxOTo6Ojiaf9PHxcXNzI6U8duwYvV45OTnSD7reu3ePXhrqkPUOgAsA2wQAAAAAsGu+f//+/v37169fk+qQlHZ1dd2+fZs8s7KykjznwoULmZmZKSkpCQkJUVFRYWFhISEhgYGBfn5+pD0kqzt37iT5IWXdvXv33r17SXv8/f3JY0lfjxw5EhoaSlpLM8bGxlIPp06dImtKS0sjpz179ixJVG5ubl5e3sWLFwsLC8mEL1++XFZWVlFRQZZVU1NTW1tLhkwLQ95148aNmzdv3rp1iwS4ubmZZGxu7qa7KoQjCR6JvWbZpsYhhUrWRhuuJX++VDq3efNmMy1kaWkpLXNRUREtP60oEj8yefrXUlNTT58+TSpI/3VkZGR4ePjRo0dphdBq8fX19fb2pnXl7u5OK23Pnj20GmmNHTp0iNqQ8NMsSUlJ1An1Rj3Tq0D/fmtr6/379589e0Y+SS+Wvt6XlJSQi+LnW4GrAdsEAAAAAHB+SFm/fPlCtkMuND8//+bNG9LX8fHxV69eDQ8PDw4O9vf39/X19fb2Pnjw4N69e+S0HR0dbW1t5I1kj42NjdevX29oaKirq7ty5Up1dTVZVnl5OekceZRkdAUFBSR1pKbkdefPnycZe5z63zdtFQyT+aGY1dgmU0dpWjdqS5JS3VkaG29LMkzLTCZMy0//BQlwe3s7/Wv0D9K/SepO/zX977QGRkdHaYXQapHOCX/+/JnWGFt3FoIsnRx1cXGRlQFwAWCbAAAAAADAKvSRbeq54qptU89XWZSWhgTVTu4SpAMpenh4OAktKwPg7MA2AQAAAACAVRBscwPObTqObRJXrlw5cuTIzMwMKwPg1MA2AQAAAACAVZjrzeQ8UP3epiyQ3Ncyy7ZtkqY16igrqKiRulFbCs10vrdpt7ZJNDQ0BAUFjY+PszIAzgtsEwAAAAAAWAXZCdmtYrlTmkw4BTNkd5FNVM9tbt2szGJUNSkaL7XKPWmtx82bN319fV+8eMHKzsXrkc/VmZPXC6YRq+Ti9Pt5h/nJHNgmAAAAAACwCho53NjYuW0S7e3tnp6eT548YWUnYuLF0tX8mZFnXxFrpPLMJGwTAAAAAAC4OjoGuNZoz1tKMXbrIDn2b5vE/fv33dzc7t69y8rOAtlmU9mcziuCWCq1OVOwTQAAAAAA4OrojJI3Mg5hm8TTp0/37t3b3NzMyk4BbNOqgW0CAAAAAAAAzOLVq1eBgYF1dXWs7PjANq0a2CYAAAAAAADAXMjMjh8/funSJVZ2cGCbVg1sEwAAAAAAALAKvn79mpSUdPbsWVZ2ZGCbVg1sEwAAAAAAALBqcnNz4+PjFxcXWdkxgW1aNbBNAAAAAAAAwFqoqKgIDg4eHR1lZQdkVbYp/uaq8rup9hPxTsjir8KuIyMJW1e+f/JqA9sEAAAAAAAArJGmpiZPT8+HDx+ysqPhyrZZ4cHrJWwTtgkAAAAAAICd0dvb6+XldfPmTVZ2KFzYNq2ilzqBbQIAAAAAAADWxfj4eGhoaHFxMSs7DoZts8ZnE/mbElnJNLZZtk1psCVuRE/eOAPsSdwit+RrtsQlCm3Y7NJcfLQOyWYZ0XtebUvxUfcyrgdpkfTmEk5syjU0Lysqy6//LELN5i30P0r1mnUiVRrwcNgmAAAAAAAAYL18+fIlLS0tKSnpw4cPrMoRMGGbGpcT5crguU2lUt9FBetTLJEqlWnmn9sqhJaJ+pImhe9QtEGxvYFHzbBNA3Pp6DFX5JdZ6VDyT40ts39EalkRp3kiKbBNAAAAAAAAgGUoLy8PDAx89uwZK9s9ZtimEZ+UXE6OjlgqX4nUWqJsdJJtKuctjcWQ1Bl4XrNsU38uo7apXWa5c4M9S/+Iuk50A9sEAAAAAAAAWIw7d+7s3r37xo0brGzfrNU2OZHjNEyWTOFRVTtFweOyrUJjj6YiiV/CCs8rC6Gmkm9scC4zbVOuN9wz61CM5tSrFNgmAAAAAAAAwJJMTExERkZmZWUtL9u7aZhjm6J9aW2T10Vew4TpzQlx4l/xdJ/W3OSYbZtSS8HldC5hpWn1eVeyTcNzWeLcJmsjrRkD/xFsEwAAAAAAAGB5CgsLDx8+/PTpU1a2S8z93qbocpJTCcYlSaBYKbqZtjFvYqKkcY+KFme+bXKuKxQNPy/nfnzPUmOqNzyXqJf65zB1OlEk07BtjiR46M3CBbYJAAAAAAAAsApdXV0+Pj6VlZWsbH+YsE01WnXkzVMsbuNP9Gnlk5tLDLM1I25mODS7+IxSDD2v5I3MSNUGUsQFM7y0koUKIefUnurklllXO4UGim3Kds2K0qNqYJsAAAAAAAAAa7GwsJCamhodHf3y5UtWZU+YcyXtqiJ6nXwq0uUD2wQAAAAAAABYl1u3bu3ataumpoaV7Qar2CZ3KtKcSKdD9aL3bU8HDGwTAAAAAAAAYHXevHmTlpYWERHR39/PquwAS9qmdGGqoQtKXTawTQAAAAAAAMAG0dHRceDAgby8vA8fPrAqm2LYNhELBbYJAAAAAAAA2Di+fv166dIlT0/Pa9eusSrbAdu0amCbAAAAAAAAgI3m5cuXycnJR48e7erqYlW2ALZp1cA2AQAAAAAAACvw/btV8vhxf1ramTNnzvb1Deg8tNqsDbLNwtjRhrxpxBq5GP0KtgkAAAAAAAAwxdevuqet7CoLC2w5VwvZZkP+zIv+r4g1UpE+CdsEAAAAAAAAmMKJbRNX0lovuJIWAAAAAAAAsAJGbVP42Y+N+WXIkYSthn6VpGzbpq2Jz7W2efny5b/97e/l5eWjo6OsygiwTasGtgkAAAAAAABYAceyzYqKitTUnPPnL/v5BYSGhtfV1b1584Y9pgW2adXANgEAAAAAAAArYAe2aSRGbLOwsFpq0Nn5NDMzz9PTOyYm7tatW4uLi6yRCGzTqoFtAgAAAAAAAFZAsE3yuk2/KGGnGTnb7I3brPOoULM1sVd2jwoPrp61ZPNKD9HfTZs2J/Sw9nzEh5Rzm8J5TrmHX+gpBud+sAUV4W1TSVNTz+nTmW5uHqdPJ3d2dn779o1awjatGtgmAAAAAAAAYAVk21ROY9a7b/rFvczIuU2hpSSN1EyxRzbNK6jgkOK0YJtbNwsdKp3oRr2SVujBo57Vi+c2H7x6v3fv3t27dx86dCgmJsbPz0/fNqVMTX1taGiPjEz4+99/PX78xNnk0saSGZ02iKUC2wQAAAAAAACsgJ5tiqJIymf4SlpVMgWNlE5IilrYq2iq1FKYXWjJemOzG4xim8KE2oPY7fOFf3z79m1ubm54ePjhw4fx8fHGbFNKU9P948fj/+f//Dd/r0jYpvUC2wQAAAAAAACsgL5tshOMGtvUXODKhJBJpqKdgm0qbcQw25SvkjUWxTa1virbJo/BK2kpnZ1PMzIuKN/h/PDhA66ktWpgmwAAAAAAAIAVMOPcJnfKUahUhFA6z0mPSmc71dOefKxqmw8ejJw/XyLdn7a+vp6/Py1s06qBbQIAAAAAAABWwND3NkVplC+F5SWwwmPzFu5i1964zVs8tm2Rv6vJf29zrqe+QueCW6NRbFMWXaneuG32978uKqo5fPhoYOBhY7+9Cdu0amCbAAAAAAAAgBWQbVO9AlaRScH9JOGUGwgPiRIoK6VwqpOXSXEWTT+rsk1pWulB3zZzcnJ27Ni9b59vQUHB4OAgqzXEqmzTjIW0TDQ6rUYw/NMPdSrtOrBNAAAAAAAAwAroX0m7mhi+etaCWdDaJtHb28umTALbtGpgmwAAAAAAAIAVWJdt8uc5zYjgWsp5S5YVZFXfNs3EPm3TSGCb1gW2CQAAAAAAgA0QbPOK73/9r771ekZhMmMZv/3//NffZvXp1ls4FrbNR2e38K4rn2ZUbVO8Npg9Kom0VsXVXwTlWkrXDEsPCX+5q5H5SA8pT8qKLLBNKwLbBAAAAAAAAFgM47apnE3V3J1I79ymcG8ksVJoJtujPK3eQknSUWFasMetm91NniNVr6QVetDcmQm2aT1gmwAAAAAAAACLYYZtSn4onMA0eCWtUik00yqiKo1CmLUqvcn1BqLMqPYpBLZpXWCbAAAAAAAAAIthjm0q3zvlbVPwQOUCV61kKoooSKPSRgyzTVUgDUexTa2vwjatC2wTAAAAAAAAYDHWdm6TM0bxt1i4afcyoZl0Sa3Sng9s026BbQIAAAAAAAAshpnf21TsUVcCy7Zt2crZY9m2TR7b3JVvWvLf25wbqSjTMVWj4fvnbj4E27QusE0AAAAAAACAxTBum5rLX1m9YI+SB5L4iY+yaUUpxXpeJgVdlLsS61dnm1J7pQfYpjWBbQIAAAAAAAAshlnf21xF1BOhCAW2CQAAAAAAAHBRLGybmh8sWTna85YsziSrsE0AAAAAAACAi2LYNp/V7v7NjsKn2sqVcivmf//Nb6Jv6dW7cmCbAAAAAAAAABfFsG0iFgpsEwAAAAAAAOCiwDatGtgmAAAAAAAAwEWBbVo1sE0AAAAAAACAiwLbtGpgmwAAAAAAAAAXBbZp1cA2AQAAAAAAAC4K2Wblmdf3by8i1silxDHYJgAAAAAAAMAVIdssT53ovPoWsUaK4mGbAAAAAAAAAJcEV9JaNbiSFgAAAAAAAOCiwDatGtgmAAAAAAAAwEWBbVo1sE0AAAAAAACAiwLbtGpgmwAAAAAAAAAXBbZp1cA2AQAAAAAAAC4KbNOqgW0CAAAAAAAAXBTYplUD2wQAAAAAAAC4KGSbBTGjDXnTiDVyKXEctgkAAAAAAABwURZmviLWC1vLjgBsEwAAAAAAAACA5YFtAgAAAAAAAACwPLBNAAAAAAAAAACWB7YJAAAAAAAAAMDywDYBAAAAAAAAAFge2CYAAAAAAAAAAMsD2wQAAAAAAAAAYHlgmwAAAAAAAAAALA9sEwAAAAAAAACA5YFtAgAAAAAAAACwPLBNAAAAAAAAAACWB7YJAAAAAAAAAMDywDYBAAAAAAAAAFge2CYAAAAAAAAAAMsD2wQAAAAAAAAAYHlgmwAAAAAAAAAALA9sEwAAAAAAAACA5YFtAgAAAAAAAACwNP/4x/8fTdFfAP8DU0AAAAAASUVORK5CYII=;" parent="1" vertex="1">
                    <mxGeometry x="340" y="280" width="1049.1" height="397.44" as="geometry"/>
                </mxCell>
                <mxCell id="16" value="games" style="swimlane;fontStyle=0;childLayout=stackLayout;horizontal=1;startSize=26;horizontalStack=0;resizeParent=1;resizeParentMax=0;resizeLast=0;collapsible=1;marginBottom=0;align=center;fontSize=14;" parent="1" vertex="1">
                    <mxGeometry x="440" y="710" width="160" height="116" as="geometry"/>
                </mxCell>
                <mxCell id="17" value="game_id" style="text;strokeColor=none;fillColor=none;spacingLeft=4;spacingRight=4;overflow=hidden;rotatable=0;points=[[0,0.5],[1,0.5]];portConstraint=eastwest;fontSize=12;whiteSpace=wrap;html=1;" parent="16" vertex="1">
                    <mxGeometry y="26" width="160" height="30" as="geometry"/>
                </mxCell>
                <mxCell id="18" value="home/away_club_id" style="text;strokeColor=none;fillColor=none;spacingLeft=4;spacingRight=4;overflow=hidden;rotatable=0;points=[[0,0.5],[1,0.5]];portConstraint=eastwest;fontSize=12;whiteSpace=wrap;html=1;" parent="16" vertex="1">
                    <mxGeometry y="56" width="160" height="30" as="geometry"/>
                </mxCell>
                <mxCell id="19" value="&lt;span style=&quot;color: rgb(0, 0, 0); font-size: 14px; text-align: center; text-wrap-mode: nowrap;&quot;&gt;competitions_id&lt;/span&gt;" style="text;strokeColor=none;fillColor=none;spacingLeft=4;spacingRight=4;overflow=hidden;rotatable=0;points=[[0,0.5],[1,0.5]];portConstraint=eastwest;fontSize=12;whiteSpace=wrap;html=1;" parent="16" vertex="1">
                    <mxGeometry y="86" width="160" height="30" as="geometry"/>
                </mxCell>
                <mxCell id="30" style="edgeStyle=orthogonalEdgeStyle;html=1;entryX=0;entryY=0.5;entryDx=0;entryDy=0;" parent="1" source="20" target="19" edge="1">
                    <mxGeometry relative="1" as="geometry">
                        <mxPoint x="420" y="816" as="targetPoint"/>
                    </mxGeometry>
                </mxCell>
                <mxCell id="31" style="edgeStyle=orthogonalEdgeStyle;html=1;entryX=0;entryY=0.5;entryDx=0;entryDy=0;" parent="1" source="20" target="26" edge="1">
                    <mxGeometry relative="1" as="geometry"/>
                </mxCell>
                <mxCell id="20" value="competitions" style="swimlane;fontStyle=0;childLayout=stackLayout;horizontal=1;startSize=26;horizontalStack=0;resizeParent=1;resizeParentMax=0;resizeLast=0;collapsible=1;marginBottom=0;align=center;fontSize=14;" parent="1" vertex="1">
                    <mxGeometry x="320" y="870" width="160" height="56" as="geometry"/>
                </mxCell>
                <mxCell id="21" value="&lt;span style=&quot;color: rgb(0, 0, 0); font-size: 14px; text-align: center; text-wrap-mode: nowrap;&quot;&gt;competitions_id&lt;/span&gt;" style="text;strokeColor=none;fillColor=none;spacingLeft=4;spacingRight=4;overflow=hidden;rotatable=0;points=[[0,0.5],[1,0.5]];portConstraint=eastwest;fontSize=12;whiteSpace=wrap;html=1;" parent="20" vertex="1">
                    <mxGeometry y="26" width="160" height="30" as="geometry"/>
                </mxCell>
                <mxCell id="32" style="edgeStyle=orthogonalEdgeStyle;html=1;entryX=1;entryY=0.5;entryDx=0;entryDy=0;" parent="1" source="24" target="18" edge="1">
                    <mxGeometry relative="1" as="geometry"/>
                </mxCell>
                <mxCell id="24" value="clubs" style="swimlane;fontStyle=0;childLayout=stackLayout;horizontal=1;startSize=26;horizontalStack=0;resizeParent=1;resizeParentMax=0;resizeLast=0;collapsible=1;marginBottom=0;align=center;fontSize=14;" parent="1" vertex="1">
                    <mxGeometry x="780" y="808.56" width="160" height="86" as="geometry"/>
                </mxCell>
                <mxCell id="25" value="&lt;span style=&quot;color: rgb(0, 0, 0); font-size: 14px; text-align: center; text-wrap-mode: nowrap;&quot;&gt;clubs_id&lt;/span&gt;" style="text;strokeColor=none;fillColor=none;spacingLeft=4;spacingRight=4;overflow=hidden;rotatable=0;points=[[0,0.5],[1,0.5]];portConstraint=eastwest;fontSize=12;whiteSpace=wrap;html=1;" parent="24" vertex="1">
                    <mxGeometry y="26" width="160" height="30" as="geometry"/>
                </mxCell>
                <mxCell id="26" value="domestic_competition_id" style="text;strokeColor=none;fillColor=none;spacingLeft=4;spacingRight=4;overflow=hidden;rotatable=0;points=[[0,0.5],[1,0.5]];portConstraint=eastwest;fontSize=12;whiteSpace=wrap;html=1;" parent="24" vertex="1">
                    <mxGeometry y="56" width="160" height="30" as="geometry"/>
                </mxCell>
                <mxCell id="33" value="players" style="swimlane;fontStyle=0;childLayout=stackLayout;horizontal=1;startSize=26;horizontalStack=0;resizeParent=1;resizeParentMax=0;resizeLast=0;collapsible=1;marginBottom=0;align=center;fontSize=14;" parent="1" vertex="1">
                    <mxGeometry x="1050" y="826" width="160" height="86" as="geometry"/>
                </mxCell>
                <mxCell id="34" value="&lt;span style=&quot;color: rgb(0, 0, 0); font-size: 14px; text-align: center; text-wrap-mode: nowrap;&quot;&gt;players_id&lt;/span&gt;" style="text;strokeColor=none;fillColor=none;spacingLeft=4;spacingRight=4;overflow=hidden;rotatable=0;points=[[0,0.5],[1,0.5]];portConstraint=eastwest;fontSize=12;whiteSpace=wrap;html=1;" parent="33" vertex="1">
                    <mxGeometry y="26" width="160" height="30" as="geometry"/>
                </mxCell>
                <mxCell id="35" value="courrent_club_id" style="text;strokeColor=none;fillColor=none;spacingLeft=4;spacingRight=4;overflow=hidden;rotatable=0;points=[[0,0.5],[1,0.5]];portConstraint=eastwest;fontSize=12;whiteSpace=wrap;html=1;" parent="33" vertex="1">
                    <mxGeometry y="56" width="160" height="30" as="geometry"/>
                </mxCell>
                <mxCell id="37" style="edgeStyle=orthogonalEdgeStyle;html=1;entryX=0;entryY=0.5;entryDx=0;entryDy=0;" parent="1" source="25" target="35" edge="1">
                    <mxGeometry relative="1" as="geometry"/>
                </mxCell>
                <mxCell id="38" value="Для визначення&lt;br&gt;&amp;nbsp;крутизни клубів" style="text;html=1;align=center;verticalAlign=middle;resizable=0;points=[];autosize=1;strokeColor=none;fillColor=none;" parent="1" vertex="1">
                    <mxGeometry x="1060" y="340" width="110" height="40" as="geometry"/>
                </mxCell>
            </root>
        </mxGraphModel>
    </diagram>
</mxfile>